<?xml version="1.0" standalone="no"?>
<!DOCTYPE svg PUBLIC "-//W3C//DTD SVG 1.1//EN" "http://www.w3.org/Graphics/SVG/1.1/DTD/svg11.dtd" >
<svg xmlns="http://www.w3.org/2000/svg">
<metadata></metadata>
<defs>
<font id="verbblack" horiz-adv-x="1304" >
<font-face units-per-em="2048" ascent="1638" descent="-410" />
<missing-glyph horiz-adv-x="540" />
<glyph unicode="&#xfb01;" horiz-adv-x="1406" d="M31 801v274h147q2 211 88 314.5t269 103.5q146 0 311 -76l-82 -258q-95 27 -125 27q-17 0 -29.5 -2.5t-27 -11t-22 -29t-7.5 -51.5v-17h256v-274h-256v-801h-375v801h-147zM922 1192v295h393v-295h-393zM928 0v1075h379v-1075h-379z" />
<glyph unicode="&#xfb02;" horiz-adv-x="1411" d="M31 801v274h147q2 211 88 314.5t269 103.5q146 0 311 -76l-82 -258q-95 27 -125 27q-17 0 -29.5 -2.5t-27 -11t-22 -29t-7.5 -51.5v-17h256v-274h-256v-801h-375v801h-147zM930 0v1493h379v-1493h-379z" />
<glyph unicode="&#xfb03;" horiz-adv-x="2217" d="M31 801v274h147q2 211 88 314.5t269 103.5q187 0 395 -94l-96 -252q-137 39 -195 39q-17 0 -29.5 -2.5t-27 -11t-22 -29t-7.5 -51.5v-17h217v-274h-217v-801h-375v801h-147zM840 801v274h145q2 212 88 315t270 103q81 0 165.5 -23.5t144.5 -52.5l-82 -258q-89 27 -125 27 q-17 0 -29 -2.5t-26 -11t-21.5 -29t-7.5 -51.5v-17h254v-274h-254v-801h-377v801h-145zM1733 1192v295h393v-295h-393zM1739 0v1075h377v-1075h-377z" />
<glyph unicode="&#xfb04;" horiz-adv-x="2220" d="M31 801v274h147q2 211 88 314.5t269 103.5q187 0 395 -94l-96 -252q-137 39 -195 39q-17 0 -29.5 -2.5t-27 -11t-22 -29t-7.5 -51.5v-17h217v-274h-217v-801h-375v801h-147zM840 801v274h145q2 212 88 315t270 103q81 0 165.5 -23.5t144.5 -52.5l-82 -258q-89 27 -125 27 q-17 0 -29 -2.5t-26 -11t-21.5 -29t-7.5 -51.5v-17h254v-274h-254v-801h-377v801h-145zM1741 0v1493h377v-1493h-377z" />
<glyph horiz-adv-x="2048" />
<glyph horiz-adv-x="2048" />
<glyph unicode="&#xd;" horiz-adv-x="2048" />
<glyph unicode=" "  horiz-adv-x="540" />
<glyph unicode="&#x09;" horiz-adv-x="540" />
<glyph unicode="&#xa0;" horiz-adv-x="540" />
<glyph unicode="!" horiz-adv-x="602" d="M72 1434h460l-118 -949h-226zM113 0v362h376v-362h-376z" />
<glyph unicode="&#x22;" horiz-adv-x="931" d="M61 1434h353l-60 -578h-233zM520 1434h350l-59 -578h-231z" />
<glyph unicode="#" horiz-adv-x="1497" d="M63 295v280h256l43 283h-215v283h259l45 293h286l-45 -293h242l45 293h289l-45 -293h213v-283h-256l-43 -283h213v-280h-256l-45 -295h-287l45 295h-242l-45 -295h-289l45 295h-213zM606 575h242l43 283h-242z" />
<glyph unicode="$" horiz-adv-x="1372" d="M55 182l172 279q100 -58 254.5 -109t255.5 -51q69 0 114.5 23.5t45.5 68.5q0 31 -22 53t-68.5 39t-97.5 30t-130 35.5t-145 47.5q-348 133 -348 420q0 176 123.5 296t351.5 138v188h270v-200q235 -39 439 -142l-174 -282q-97 44 -224.5 80.5t-212.5 36.5q-69 0 -113 -23 t-44 -68q0 -32 22 -54t68 -37.5t96 -28t126.5 -34t139.5 -46.5q37 -14 66.5 -27.5t68.5 -35t68.5 -44.5t60 -56t50.5 -70t32.5 -85t12.5 -102q0 -178 -127.5 -300t-354.5 -140v-187h-270v199q-146 23 -279.5 75t-226.5 113z" />
<glyph unicode="%" horiz-adv-x="2086" d="M53 1071q0 178 108 281.5t306 103.5t307 -103.5t109 -281.5q0 -177 -109 -280t-307 -103t-306 102.5t-108 280.5zM326 1071q0 -79 36.5 -118.5t104.5 -39.5t104.5 39.5t36.5 118.5t-36.5 119.5t-104.5 40.5t-104.5 -40.5t-36.5 -119.5zM530 0l738 1434h286l-737 -1434 h-287zM1206 360q0 178 107.5 281.5t306.5 103.5q198 0 306 -103.5t108 -281.5t-108 -280.5t-306 -102.5q-199 0 -306.5 102.5t-107.5 280.5zM1479 360q0 -157 141 -157t141 157q0 79 -36.5 119.5t-104.5 40.5t-104.5 -40.5t-36.5 -119.5z" />
<glyph unicode="&#x26;" horiz-adv-x="1513" d="M88 367q0 65 22.5 123t65 106t88.5 85t107 75q-88 89 -134.5 168t-46.5 172q0 160 128.5 260t330.5 100q203 0 324 -99.5t121 -240.5q0 -57 -21.5 -111.5t-63 -103.5t-85 -87.5t-103.5 -82.5l199 -196q60 111 63 221h379q-17 -106 -67.5 -227t-134.5 -228l307 -301h-430 l-101 98q-198 -121 -446 -121q-219 0 -360.5 111t-141.5 279zM459 379q0 -52 44 -88.5t120 -36.5q93 0 192 61l-237 238q-119 -97 -119 -174zM526 1081q0 -69 105 -170q61 42 94 83t33 87q0 42 -29 77.5t-84 35.5t-87 -35.5t-32 -77.5z" />
<glyph unicode="'" horiz-adv-x="475" d="M61 1434h353l-60 -578h-233z" />
<glyph unicode="(" horiz-adv-x="708" d="M96 256v911q0 58 0.5 87t3.5 76t10 70.5t19 60t30.5 56t45.5 47.5t64 45t85 38t108.5 38t135.5 33l92 -205q-49 -18 -82.5 -33t-56.5 -33t-35.5 -33t-19 -40t-8 -45.5t-1.5 -58.5v-1114q0 -38 1.5 -58.5t8 -46t19 -40.5t35.5 -33t56.5 -33t82.5 -33l-92 -205 q-75 16 -135.5 33t-108.5 37.5t-85 37.5t-64 45t-45.5 47.5t-30.5 56t-19 59.5t-10 70t-3.5 76t-0.5 87z" />
<glyph unicode=")" horiz-adv-x="708" d="M18 -88q49 18 82.5 33t56.5 33t35.5 33t19 40.5t8 46t1.5 58.5v1114q0 38 -1.5 58.5t-8 45.5t-19 40t-35.5 33t-56.5 33t-82.5 33l95 205q124 -27 210 -55t141 -70t85.5 -74.5t44 -98.5t16 -110.5t2.5 -140.5v-2v-911v-2q0 -96 -2.5 -140t-16 -110.5t-44 -98.5 t-85.5 -73.5t-141 -69.5t-210 -55z" />
<glyph unicode="*" horiz-adv-x="968" d="M59 950l332 66l-332 67l154 269l225 -256l-108 321h309l-109 -321l224 256l153 -269l-315 -65l315 -68l-153 -268l-217 240l102 -308h-309l108 322l-225 -254z" />
<glyph unicode="+" horiz-adv-x="1335" d="M131 543v280h395v357h281v-357h395v-280h-395v-357h-281v357h-395z" />
<glyph unicode="," horiz-adv-x="573" d="M92 -238l172 238h-168v397h375l23 -448l-304 -311z" />
<glyph unicode="-" horiz-adv-x="888" d="M98 432v301h695v-301h-695z" />
<glyph unicode="." horiz-adv-x="567" d="M94 0v397h379v-397h-379z" />
<glyph unicode="/" horiz-adv-x="1015" d="M33 -184l667 1802h281l-666 -1802h-282z" />
<glyph unicode="0" horiz-adv-x="1421" d="M74 717q0 352 164 545.5t475 193.5q310 0 472.5 -193t162.5 -546t-163.5 -546.5t-473.5 -193.5t-473.5 193.5t-163.5 546.5zM471 717q0 -235 61 -336.5t179 -101.5q119 0 180 101t61 337q0 235 -60.5 335.5t-178.5 100.5q-119 0 -180.5 -100t-61.5 -336z" />
<glyph unicode="1" horiz-adv-x="909" d="M-14 1198l415 236h375v-1434h-391v1075l-246 -129z" />
<glyph unicode="2" horiz-adv-x="1292" d="M49 0v160q0 103 37.5 194.5t106.5 166.5t138.5 129.5t162.5 111.5q34 21 84.5 50t78 45.5t61.5 40t51.5 41t29.5 40t12 45.5q0 46 -43 77.5t-125 31.5q-146 0 -385 -136l-172 252q301 207 616 207q125 0 223.5 -33t159 -90.5t92 -131.5t31.5 -159q0 -59 -16 -114 t-38.5 -97t-63 -84.5t-74 -70.5t-87.5 -62t-87 -52.5t-88 -47.5q-110 -59 -169 -103.5t-59 -86.5h684v-324h-1161z" />
<glyph unicode="3" horiz-adv-x="1290" d="M18 174l172 264q252 -133 433 -133q97 0 150.5 33t53.5 96q0 30 -14 54.5t-35.5 40.5t-54.5 27.5t-63.5 17.5t-72 9.5t-69.5 4t-65 0.5h-62v325h72q36 0 64 1t66.5 5t66.5 12.5t54 22t40 35t14 49.5q0 44 -36 69.5t-109 25.5q-159 0 -381 -121l-160 243q287 201 604 201 q121 0 214.5 -28t149 -77.5t83.5 -111.5t28 -135q0 -208 -219 -313q124 -41 203.5 -140t79.5 -223q0 -69 -17 -132t-57.5 -122t-102 -102t-157.5 -69t-217 -26q-329 0 -656 197z" />
<glyph unicode="4" horiz-adv-x="1439" d="M31 250v268l631 916h522v-861h215v-323h-215v-250h-393v250h-760zM428 573h363v541z" />
<glyph unicode="5" horiz-adv-x="1273" d="M33 172l170 283q217 -144 383 -144q101 0 164 43t63 119q0 71 -57 119.5t-168 48.5q-122 0 -266 -74l-218 138l78 729h973v-324h-645l-10 -176q90 22 186 22q105 0 192.5 -26t148 -71t102.5 -106.5t61.5 -131.5t19.5 -146q0 -100 -34.5 -188t-102.5 -158t-179 -111 t-253 -41q-100 0 -198.5 20t-178 53.5t-132.5 62t-99 59.5z" />
<glyph unicode="6" horiz-adv-x="1327" d="M68 596q0 191 66.5 351.5t184.5 272t285 174t363 62.5q60 0 116.5 -5.5t83.5 -10.5l27 -6l-90 -306q-61 11 -135 11q-70 0 -134.5 -15t-127 -47.5t-114 -93.5t-83.5 -145q135 92 309 92q204 0 334.5 -123t130.5 -324q0 -103 -40 -194.5t-113.5 -161t-185 -110 t-245.5 -40.5q-129 0 -235 34t-178.5 92.5t-122.5 138t-73 168.5t-23 186zM465 545q1 -68 21.5 -118.5t54.5 -78t71.5 -40.5t77.5 -13q102 0 152.5 51.5t50.5 120.5q0 76 -55.5 125t-147.5 49q-75 0 -132.5 -29t-92.5 -67z" />
<glyph unicode="7" horiz-adv-x="1122" d="M39 1110v324h1061v-304q-11 -13 -29.5 -36t-72 -96.5t-102.5 -149t-108.5 -185t-102 -212.5t-72 -224t-29.5 -227h-404q0 138 48 298.5t110 284.5t142.5 250.5t123 182.5t74.5 94h-639z" />
<glyph unicode="8" horiz-adv-x="1359" d="M51 395q0 73 24 134.5t68.5 108t95 80.5t115.5 64q-211 131 -211 318q0 159 141 257.5t396 98.5q254 0 395.5 -98.5t141.5 -257.5q0 -187 -213 -318q66 -30 117 -64t95.5 -80.5t68.5 -108t24 -134.5q0 -195 -164 -306.5t-465 -111.5t-465 111.5t-164 306.5zM449 426 q0 -67 64 -111.5t167 -44.5t167 44.5t64 111.5t-60 116t-171 95q-111 -46 -171 -94.5t-60 -116.5zM526 1061q0 -51 41 -87t113 -67q71 31 112.5 67t41.5 87q0 41 -41 77t-113 36t-113 -36t-41 -77z" />
<glyph unicode="9" horiz-adv-x="1329" d="M45 950q0 103 40.5 194.5t113.5 161t185 110t247 40.5q129 0 235 -34t178.5 -92t122.5 -137.5t72.5 -168.5t22.5 -186q1 -254 -113 -450.5t-318.5 -303.5t-465.5 -107q-61 0 -118.5 5.5t-84.5 11.5l-27 6l92 305q59 -10 135 -10q71 0 135 14.5t127 47t114.5 93.5 t82.5 146q-131 -92 -311 -92q-203 0 -334 122.5t-131 323.5zM438 967q0 -76 55.5 -125t147.5 -49q75 0 133 29.5t92 68.5q-3 127 -70.5 187.5t-154.5 60.5q-102 0 -152.5 -51.5t-50.5 -120.5z" />
<glyph unicode=":" horiz-adv-x="593" d="M109 0v397h376v-397h-376zM109 610v398h376v-398h-376z" />
<glyph unicode=";" horiz-adv-x="602" d="M106 -238l173 238h-168v397h374l23 -448l-303 -311zM111 610v398h376v-398h-376z" />
<glyph unicode="&#x3c;" horiz-adv-x="1335" d="M102 557v252l1069 414v-314l-659 -227l659 -229v-310z" />
<glyph unicode="=" horiz-adv-x="1335" d="M131 344v281h1071v-281h-1071zM131 745v281h1071v-281h-1071z" />
<glyph unicode="&#x3e;" horiz-adv-x="1335" d="M162 143v310l655 229l-655 227v314l1069 -414v-252z" />
<glyph unicode="?" horiz-adv-x="1138" d="M47 1288q269 168 535 168q222 0 359.5 -106.5t137.5 -282.5q0 -81 -28.5 -148t-72.5 -113t-111 -84t-131 -61.5t-144 -44.5l-19 -131h-229l-20 332q208 40 284 77t76 110q0 52 -42.5 90.5t-127.5 38.5q-138 0 -307 -107zM270 0v362h377v-362h-377z" />
<glyph unicode="@" horiz-adv-x="1943" d="M68 518q0 193 63.5 356t181.5 281t294 184t392 66q211 0 379.5 -66t278.5 -184.5t168 -280t59 -354.5q0 -93 -12.5 -174.5t-43 -160t-77.5 -134t-121.5 -89.5t-169.5 -34q-79 0 -139.5 25.5t-94.5 66t-51.5 79.5t-23.5 79q-145 -133 -330 -133q-143 0 -234 83.5 t-91 225.5q0 148 96.5 229t249.5 81q37 0 86 -5.5t79.5 -11t83 -15.5t58.5 -11v71q0 80 -35.5 113t-124.5 33q-151 0 -342 -78l-88 186q276 96 483 96q193 0 283 -86t90 -274v-303q0 -49 1 -79.5t4.5 -67.5t11.5 -59t20.5 -42.5t32.5 -29.5t47 -9q96 0 163.5 111.5 t67.5 324.5q0 126 -29 238t-90 208t-150 165.5t-215.5 109t-279.5 39.5q-195 0 -349.5 -59.5t-253.5 -164t-151 -243.5t-52 -303q0 -221 89.5 -394.5t259.5 -273.5t394 -100q108 0 205 21t139 42l43 21l76 -96q-7 -4 -19.5 -11t-57 -25.5t-95 -32t-131.5 -25t-168 -11.5 q-253 0 -449.5 114t-303.5 315.5t-107 455.5zM768 379q0 -65 38 -97t103 -32q121 0 240 102v135q-164 31 -217 31q-82 0 -123 -37t-41 -102z" />
<glyph unicode="A" horiz-adv-x="1484" d="M-4 0l528 1434h434l529 -1434h-428l-72 240h-491l-72 -240h-428zM586 545h309l-156 520z" />
<glyph unicode="B" horiz-adv-x="1437" d="M125 0v1434h629q281 0 421 -88.5t140 -260.5q0 -70 -23 -129.5t-59 -97.5t-73.5 -61t-72.5 -29q35 -5 73 -20.5t80.5 -46t75.5 -72t55 -105t22 -137.5q0 -184 -134.5 -285.5t-414.5 -101.5h-719zM518 299h238q248 0 248 156q0 83 -65.5 120t-201.5 37h-219v-313zM518 889 h201q207 0 207 127q0 119 -205 119h-203v-246z" />
<glyph unicode="C" horiz-adv-x="1349" d="M66 717q0 184 45 326t127 231.5t192.5 135.5t245.5 46q165 0 316.5 -53t332.5 -152l-180 -288q-133 70 -232.5 105.5t-185.5 35.5q-125 0 -191.5 -104t-66.5 -283t66.5 -283t191.5 -104q86 0 185.5 35.5t232.5 105.5l180 -289q-181 -99 -332.5 -152t-316.5 -53 q-135 0 -245.5 46t-192.5 136t-127 232t-45 326z" />
<glyph unicode="D" horiz-adv-x="1501" d="M125 0v1434h557q376 0 564 -170.5t188 -546.5t-188 -546.5t-564 -170.5h-557zM518 332h125q79 0 138 9.5t110 35t83 68.5t50 111t18 161t-18 161t-50 111t-83 68.5t-110 35t-138 9.5h-125v-770z" />
<glyph unicode="E" horiz-adv-x="1284" d="M125 0v1434h1073v-332h-680v-223h553v-324h-553v-223h692v-332h-1085z" />
<glyph unicode="F" horiz-adv-x="1226" d="M125 0v1434h1073v-332h-680v-223h537v-326h-537v-553h-393z" />
<glyph unicode="G" horiz-adv-x="1468" d="M66 715q0 184 45.5 326.5t129 232.5t196 136t249.5 46q174 0 332.5 -54t345.5 -153l-178 -288q-142 70 -249.5 106.5t-199.5 36.5q-131 0 -199.5 -104t-68.5 -283q0 -121 25.5 -210t86 -143.5t152.5 -54.5q128 0 277 133v99h-301v307h669v-848h-368v123 q-173 -146 -369 -146q-118 0 -220.5 46t-182.5 135t-126 232.5t-46 324.5z" />
<glyph unicode="H" horiz-adv-x="1513" d="M125 0v1434h393v-521h477v521h394v-1434h-394v590h-477v-590h-393z" />
<glyph unicode="I" horiz-adv-x="643" d="M125 0v1434h393v-1434h-393z" />
<glyph unicode="J" horiz-adv-x="645" d="M-111 -111q61 20 100.5 35.5t67 34t41 31.5t20.5 39t8 44t1 58v1303h393v-1280q0 -60 -0.5 -88t-3.5 -76t-9.5 -70.5t-18.5 -60t-30.5 -56.5t-46 -47t-64 -45t-84.5 -38.5t-109 -38t-136 -33.5z" />
<glyph unicode="K" horiz-adv-x="1468" d="M125 0v1434h393v-605l492 605h463l-572 -674l586 -760h-465l-363 475l-141 -168v-307h-393z" />
<glyph unicode="L" horiz-adv-x="1202" d="M125 0v1434h393v-1102h658v-332h-1051z" />
<glyph unicode="M" horiz-adv-x="1773" d="M125 0v1434h399l363 -770l360 770h402v-1434h-394v805l-266 -565h-205l-266 563v-803h-393z" />
<glyph unicode="N" horiz-adv-x="1546" d="M125 0v1434h397l506 -840v840h393v-1434h-397l-506 836v-836h-393z" />
<glyph unicode="O" horiz-adv-x="1583" d="M63 717q0 127 25.5 236.5t82 203t140 159.5t206 103t274.5 37q189 0 331.5 -56.5t228 -158t127.5 -233t42 -291.5q0 -127 -25.5 -236.5t-82 -203.5t-140.5 -160t-206.5 -103t-274.5 -37t-274.5 37t-206 103t-140 160t-82 203.5t-25.5 236.5zM467 717q0 -406 324 -406 q323 0 323 406q0 92 -17.5 164t-55 127t-101 84.5t-149.5 29.5q-169 0 -246.5 -107.5t-77.5 -297.5z" />
<glyph unicode="P" horiz-adv-x="1396" d="M125 0v1434h643q600 0 600 -482q0 -477 -600 -477h-250v-475h-393zM518 795h223q41 0 73.5 4t63 14.5t50 27.5t31.5 45t12 66q0 47 -17 79t-50 48.5t-72 23.5t-91 7h-223v-315z" />
<glyph unicode="Q" horiz-adv-x="1583" d="M63 717q0 127 25.5 236.5t82 203t140 159.5t206 103t274.5 37q189 0 331.5 -56.5t228 -158t127.5 -233t42 -291.5q0 -223 -81.5 -392.5t-248.5 -258.5l219 -170l-256 -265l-362 346q-152 0 -274.5 37t-206 103t-140 160t-82 203.5t-25.5 236.5zM467 717q0 -406 324 -406 q323 0 323 406q0 92 -17.5 164t-55 127t-101 84.5t-149.5 29.5q-169 0 -246.5 -107.5t-77.5 -297.5z" />
<glyph unicode="R" horiz-adv-x="1466" d="M125 0v1434h684q310 0 457 -113t147 -344q0 -174 -84 -280.5t-256 -149.5l342 -547h-420l-313 520h-164v-520h-393zM518 825h264q113 0 173.5 32.5t60.5 119.5t-60 119t-172 32h-266v-303z" />
<glyph unicode="S" horiz-adv-x="1335" d="M37 182l172 279q102 -59 255.5 -109.5t254.5 -50.5q70 0 115 23.5t45 68.5q0 31 -22.5 53t-69 38.5t-97.5 30t-129.5 36.5t-144.5 49q-348 124 -348 418q0 191 143 314.5t405 123.5q161 0 333 -45t304 -113l-174 -282q-98 44 -224.5 80.5t-211.5 36.5q-69 0 -114.5 -23 t-45.5 -68q0 -32 22.5 -54t68.5 -37.5t97 -28t127.5 -34t139.5 -46.5q43 -17 77.5 -33.5t78.5 -42.5t77 -58.5t62.5 -73.5t45 -95t15.5 -117q0 -195 -147 -320t-410 -125q-190 0 -381 61.5t-319 143.5z" />
<glyph unicode="T" horiz-adv-x="1253" d="M25 1102v332h1202v-332h-402v-1102h-393v1102h-407z" />
<glyph unicode="U" horiz-adv-x="1490" d="M111 614v820h393v-856q0 -62 9.5 -106t34.5 -83t74 -58.5t123 -19.5q73 0 122.5 20t74.5 58.5t35 83t10 105.5v856h393v-820q0 -80 -7.5 -146.5t-27 -133t-50.5 -119t-80.5 -98t-114.5 -76t-155 -47.5t-200 -17t-200 17t-155 47.5t-114.5 76t-80.5 97.5t-50 119 t-26.5 133.5t-7.5 146.5z" />
<glyph unicode="V" horiz-adv-x="1478" d="M-8 1434h459l286 -973l289 973h457l-527 -1434h-436z" />
<glyph unicode="W" horiz-adv-x="2025" d="M10 1434h451l180 -879l219 879h309l217 -875l183 875h450l-401 -1434h-383l-221 862l-221 -862h-381z" />
<glyph unicode="X" horiz-adv-x="1398" d="M-14 0l471 727l-447 707h453l235 -469l238 469h453l-447 -707l471 -727h-467l-248 451l-245 -451h-467z" />
<glyph unicode="Y" horiz-adv-x="1396" d="M-10 1434h442l266 -527l267 527h442l-514 -869l2 -565h-393v569z" />
<glyph unicode="Z" horiz-adv-x="1337" d="M53 0v299l690 803h-645v332h1162v-299l-689 -803h699v-332h-1217z" />
<glyph unicode="[" horiz-adv-x="768" d="M113 -293v2011h628v-213h-235v-1585h235v-213h-628z" />
<glyph unicode="\" horiz-adv-x="1015" d="M33 1618h282l666 -1802h-281z" />
<glyph unicode="]" horiz-adv-x="768" d="M27 -80h235v1585h-235v213h626v-2011h-626v213z" />
<glyph unicode="^" horiz-adv-x="1335" d="M92 641l381 793h387l381 -793h-405l-170 418l-170 -418h-404z" />
<glyph unicode="_" horiz-adv-x="1458" d="M96 -133h1266v-264h-1266v264z" />
<glyph unicode="`" horiz-adv-x="507" d="M-80 1493h408l260 -293h-307z" />
<glyph unicode="a" horiz-adv-x="1247" d="M37 336q0 158 111.5 250t293.5 92q55 0 118 -7.5t138 -21t80 -14.5v53q0 72 -36.5 99.5t-131.5 27.5q-132 0 -387 -74l-114 256q316 101 577 101q254 0 362.5 -99t108.5 -335v-664h-379v117q-155 -140 -360 -140q-172 0 -276.5 102t-104.5 257zM418 371q0 -53 34 -80 t93 -27q126 0 233 88v105q-133 26 -209 26q-151 0 -151 -112z" />
<glyph unicode="b" d="M100 0v1493h379v-524q76 63 157 96t189 33q197 0 311.5 -145.5t114.5 -415.5q0 -267 -114.5 -413.5t-311.5 -146.5q-107 0 -187.5 32t-158.5 93v-102h-379zM479 393q98 -114 221 -114q168 0 168 260q0 258 -168 258q-121 0 -221 -117v-287z" />
<glyph unicode="c" horiz-adv-x="1073" d="M51 539q0 142 41.5 252t113.5 175.5t161 98.5t190 33q205 0 494 -125l-148 -279q-187 82 -280 82q-90 0 -138.5 -64t-48.5 -173t48.5 -174.5t138.5 -65.5q93 0 280 82l148 -279q-277 -125 -494 -125q-101 0 -190 33.5t-161 99.5t-113.5 176.5t-41.5 252.5z" />
<glyph unicode="d" d="M53 537q0 271 113.5 416t310.5 145q108 0 189 -33t157 -96v524h379v-1493h-379v102q-78 -61 -158.5 -93t-187.5 -32q-196 0 -310 146t-114 414zM434 539q0 -260 168 -260q123 0 221 114v287q-100 117 -221 117q-168 0 -168 -258z" />
<glyph unicode="e" horiz-adv-x="1202" d="M51 532q0 266 147.5 416t413.5 150q133 0 236.5 -36t169 -100.5t99.5 -152t34 -193.5q0 -40 -5.5 -79t-10.5 -59l-5 -19h-692q11 -104 58 -154.5t135 -50.5q144 0 391 121l135 -232q-56 -30 -90 -46t-118.5 -50t-176 -52t-182.5 -18q-115 0 -211.5 33t-170.5 99 t-115.5 174t-41.5 249zM440 653h342q-3 181 -166 181q-148 0 -176 -181z" />
<glyph unicode="f" horiz-adv-x="827" d="M31 801v274h147q2 211 88 314.5t269 103.5q187 0 395 -94l-125 -252q-113 39 -166 39q-17 0 -29.5 -2.5t-27 -11t-22 -29t-7.5 -51.5v-17h256v-274h-256v-801h-375v801h-147z" />
<glyph unicode="g" d="M53 537q0 271 113.5 416t310.5 145q108 0 189 -33t157 -96v106h379v-1040q0 -239 -121 -356t-381 -117q-131 0 -294.5 25t-305.5 67l72 295q107 -32 239.5 -59t206.5 -27q119 0 162 34t43 117v88q-78 -61 -158.5 -93t-187.5 -32q-196 0 -310 146t-114 414zM434 539 q0 -260 168 -260q123 0 221 114v287q-100 117 -221 117q-168 0 -168 -258z" />
<glyph unicode="h" d="M100 0v1493h379v-530q202 135 400 135q333 0 333 -344v-754h-378v664q0 69 -24.5 106t-86.5 37q-61 0 -128 -32.5t-116 -80.5v-694h-379z" />
<glyph unicode="i" horiz-adv-x="579" d="M94 1192v295h393v-295h-393zM100 0v1075h379v-1075h-379z" />
<glyph unicode="j" horiz-adv-x="579" d="M-137 -209q46 16 78.5 27.5t59 26t42.5 23.5t27.5 26t17 27t8.5 34t3.5 39t0.5 49v1032h379v-1001v-2q0 -59 -0.5 -87t-3.5 -76t-9.5 -71t-18.5 -60t-30 -56l-45 -47.5t-63 -45t-83.5 -38t-107.5 -38t-134 -32.5zM92 1192v295h393v-295h-393z" />
<glyph unicode="k" horiz-adv-x="1226" d="M100 0v1493h379v-778l281 360h430l-363 -424l424 -651h-397l-254 387l-121 -141v-246h-379z" />
<glyph unicode="l" horiz-adv-x="583" d="M102 0v1493h379v-1493h-379z" />
<glyph unicode="m" horiz-adv-x="1931" d="M100 0v1075h379v-123q173 146 350 146q232 0 299 -174q70 68 170 121t211 53q330 0 330 -344v-754h-379v664q0 72 -19.5 107.5t-78.5 35.5q-53 0 -108 -34t-97 -81v-692h-375v664q0 72 -20.5 107.5t-81.5 35.5q-51 0 -105 -32t-96 -77v-698h-379z" />
<glyph unicode="n" d="M100 0v1075h379v-112q202 135 400 135q333 0 333 -344v-754h-378v664q0 69 -24.5 106t-86.5 37q-61 0 -128 -32.5t-116 -80.5v-694h-379z" />
<glyph unicode="o" horiz-adv-x="1280" d="M51 539q0 268 152.5 413.5t437.5 145.5q283 0 435.5 -146.5t152.5 -414.5t-152.5 -414t-435.5 -146q-284 0 -437 147t-153 415zM432 539q0 -275 209 -275q207 0 207 273q0 133 -51.5 203.5t-155.5 70.5q-209 0 -209 -272z" />
<glyph unicode="p" d="M100 -418v1493h379v-106q76 63 157 96t189 33q197 0 311.5 -145.5t114.5 -415.5q0 -267 -114.5 -413.5t-311.5 -146.5q-107 0 -187.5 32t-158.5 93v-520h-379zM479 393q98 -114 221 -114q168 0 168 260q0 258 -168 258q-121 0 -221 -117v-287z" />
<glyph unicode="q" d="M53 537q0 271 113.5 416t310.5 145q108 0 189 -33t157 -96v106h379v-1493h-379v520q-78 -61 -158.5 -93t-187.5 -32q-196 0 -310 146t-114 414zM434 539q0 -260 168 -260q123 0 221 114v287q-100 117 -221 117q-168 0 -168 -258z" />
<glyph unicode="r" horiz-adv-x="905" d="M100 0v1075h379v-221q10 26 25.5 52t49.5 63t76 63q40 28 106 44q50 13 108 12q17 0 35 -1v-354q-73 0 -135 -19t-102 -49.5t-71.5 -67.5t-48 -74t-27 -67.5t-13.5 -49.5l-3 -19v-387h-379z" />
<glyph unicode="s" horiz-adv-x="1120" d="M33 121l143 264q95 -46 228 -84.5t217 -38.5q86 0 86 39q0 11 -8 20t-24.5 17.5t-34.5 15t-46 13.5t-51 12.5t-57.5 13t-57.5 13.5q-373 93 -373 356q0 148 114.5 242t330.5 94q138 0 286.5 -36.5t253.5 -84.5l-143 -244q-84 32 -193.5 58t-181.5 26q-88 0 -88 -41 q0 -15 12.5 -27t43 -22.5t56.5 -17t78 -18t83 -19.5q60 -15 108.5 -32.5t101.5 -47.5t88.5 -66.5t58.5 -91t23 -119.5q0 -155 -118 -246.5t-340 -91.5q-157 0 -323.5 43.5t-272.5 100.5z" />
<glyph unicode="t" horiz-adv-x="913" d="M39 801v274h147v271l375 40v-311h291v-274h-291v-402q0 -31 7.5 -51.5t22 -29t27 -11t29.5 -2.5q43 0 146 45l131 -278q-205 -95 -381 -95q-184 0 -270.5 105t-86.5 319v400h-147z" />
<glyph unicode="u" d="M92 322v753h379v-663q0 -70 24 -107t87 -37q60 0 126.5 32t116.5 79v696h377v-1075h-377v113q-202 -136 -401 -136q-332 0 -332 345z" />
<glyph unicode="v" horiz-adv-x="1226" d="M2 1075h406l202 -665l207 665h406l-424 -1075h-373z" />
<glyph unicode="w" horiz-adv-x="1753" d="M12 1075h402l137 -661l176 661h303l176 -661l137 661h400l-330 -1075h-350l-184 625l-185 -625h-352z" />
<glyph unicode="x" horiz-adv-x="1267" d="M-16 0l413 537l-389 538h426l197 -313l198 313h428l-391 -536l416 -539h-442l-209 324l-205 -324h-442z" />
<glyph unicode="y" horiz-adv-x="1226" d="M4 1075h406l204 -620l203 620h408l-586 -1493h-403l186 420z" />
<glyph unicode="z" horiz-adv-x="1187" d="M55 0v258l529 508h-508v309h1046v-258l-526 -508h526v-309h-1067z" />
<glyph unicode="{" horiz-adv-x="808" d="M0 606v213q124 0 166 57t29 160l-25 191q-14 103 6 185.5t68 139t123 94.5t168 55t206 17h37v-205h-37q-50 0 -86 -16t-55 -43t-30 -61t-10.5 -69.5t3.5 -70.5l19 -145q21 -184 -55.5 -275t-250.5 -120q174 -29 250.5 -120.5t55.5 -275.5l-19 -145q-3 -35 -3.5 -71 t10.5 -70t30 -60.5t55 -42.5t86 -16h37v-205h-37q-113 0 -206 17.5t-168 55.5t-123.5 94.5t-68 139t-5.5 185.5l27 190q13 103 -30 160t-167 57z" />
<glyph unicode="|" horiz-adv-x="501" d="M115 -252v1927h274v-1927h-274z" />
<glyph unicode="}" horiz-adv-x="808" d="M31 -88h37q61 0 102 24.5t56.5 62.5t21 84t-3.5 89l-17 145q-24 183 52.5 275t250.5 121q-174 29 -250.5 120.5t-52.5 274.5l17 145q9 42 3.5 88t-21 84.5t-56.5 63t-102 24.5h-37v205h37q142 0 252 -28t188 -85.5t112 -153.5t17 -224l-25 -191q-13 -103 30 -160t167 -57 v-213q-124 0 -166 -57t-29 -160l25 -190q17 -128 -17 -224t-113 -154t-189 -86t-252 -28h-37v205z" />
<glyph unicode="~" horiz-adv-x="1335" d="M31 432q68 167 162 260.5t233 93.5q69 0 139.5 -23.5t120 -52t111 -52t114.5 -23.5q49 0 90.5 27t88.5 108l213 -86q-66 -166 -161.5 -260t-236.5 -94q-64 0 -134 23.5t-121.5 52t-114.5 52t-115 23.5q-49 0 -88 -27t-88 -108z" />
<glyph unicode="&#xa1;" horiz-adv-x="602" d="M72 0l116 948h226l118 -948h-460zM113 1071v363h376v-363h-376z" />
<glyph unicode="&#xa2;" horiz-adv-x="1155" d="M68 719q0 134 36.5 239t100.5 171t144.5 102.5t174.5 44.5v158h269v-185q141 -33 301 -104l-148 -279q-209 90 -307 90q-90 0 -138 -64t-48 -173t48 -174.5t138 -65.5q109 0 307 90l148 -278q-153 -72 -301 -107v-184h-269v160q-94 8 -174.5 45t-144.5 103t-100.5 171.5 t-36.5 239.5z" />
<glyph unicode="&#xa3;" horiz-adv-x="1216" d="M84 0v262l12 3t31 11t44 20t47.5 31t47 43t37 56.5t21.5 71.5h-218v217h166q-8 15 -36 62t-40.5 72t-30.5 68t-26 85.5t-8 89.5q0 172 118 268t333 96q74 0 149 -14t128 -30.5t118 -48t94.5 -48.5t83.5 -49l-168 -250q-205 117 -325 117q-68 0 -103 -28t-35 -77 q0 -43 25 -91.5t63.5 -110t57.5 -111.5h329v-217h-311q-12 -60 -45 -105.5t-70 -68.5h560v-324h-1049z" />
<glyph unicode="&#xa5;" horiz-adv-x="1507" d="M45 1434h442l267 -525l266 525h442l-387 -652h230v-213h-357v-90h357v-213h-357l2 -266h-393v266h-354v213h354v90h-354v213h227z" />
<glyph unicode="&#xa6;" horiz-adv-x="505" d="M117 -252v846h274v-846h-274zM117 829v846h274v-846h-274z" />
<glyph unicode="&#xa7;" horiz-adv-x="1204" d="M66 631q0 166 159 243q-123 95 -123 246q0 148 116.5 242t332.5 94q138 0 284 -36.5t252 -84.5l-143 -243q-79 31 -192 57.5t-183 26.5q-88 0 -88 -43q0 -15 13 -27t42.5 -21.5t57 -16t78.5 -18t86 -20.5q57 -14 107 -31.5t102 -47t88.5 -66.5t60 -90.5t23.5 -116.5 q0 -164 -160 -246q121 -92 121 -244q0 -148 -115.5 -241.5t-331.5 -93.5q-139 0 -286 36t-252 84l143 244q81 -32 193 -58t182 -26q88 0 88 41q0 16 -13 28t-42.5 21.5t-57 16t-77 17.5t-82.5 19q-383 98 -383 355zM426 670q0 -10 4.5 -19.5t15 -17.5t20.5 -14.5t28.5 -13.5 t31.5 -11.5t37 -10.5t37.5 -9.5t40 -9.5t37.5 -9q57 13 78.5 37.5t21.5 46.5q0 21 -20 38t-53.5 29t-74 22t-86.5 20q-13 3 -20 4q-52 -11 -75 -34.5t-23 -47.5z" />
<glyph unicode="&#xa8;" horiz-adv-x="530" d="M-70 1221v266h283v-266h-283zM319 1221v266h281v-266h-281z" />
<glyph unicode="&#xa9;" horiz-adv-x="1597" d="M70 717q0 156 49 290.5t140 234.5t230.5 157t311.5 57t311 -57t230 -157t139.5 -234.5t48.5 -290.5t-48.5 -290.5t-139.5 -234.5t-230 -157.5t-311 -57.5t-311.5 57.5t-230.5 157.5t-140 234.5t-49 290.5zM152 717q0 -141 43 -261t123 -209.5t204 -140.5t277 -51 q154 0 278.5 51t205 140.5t124 209.5t43.5 261t-43.5 261t-124 209.5t-205 140t-278.5 50.5q-203 0 -351.5 -88t-222 -236t-73.5 -337zM430 715q0 212 101.5 329t254.5 117q72 0 143 -23t109 -45.5t90 -58.5l-63 -73q-38 30 -68 49.5t-88.5 40t-117.5 20.5 q-114 0 -184 -97.5t-70 -258.5q0 -159 70 -256t184 -97q59 0 118 20.5t87.5 38.5t68.5 48l63 -72q-52 -36 -90 -58.5t-109 -45.5t-143 -23q-152 0 -254 117t-102 328z" />
<glyph unicode="&#xaa;" horiz-adv-x="856" d="M49 991q0 94 71 150.5t189 56.5q62 0 207 -27v25q0 37 -22 50.5t-78 13.5q-97 0 -246 -41l-76 167q209 62 371 62q165 0 235 -62t70 -208v-390h-254v66q-99 -80 -225 -80q-110 0 -176 63t-66 154zM305 1016q0 -24 20 -37.5t54 -13.5q78 0 137 43v45q-88 16 -123 16 q-88 0 -88 -53z" />
<glyph unicode="&#xab;" horiz-adv-x="1392" d="M47 432v223l623 422v-346l-305 -186l305 -187v-348zM672 432v223l624 422v-346l-305 -186l305 -187v-348z" />
<glyph unicode="&#xac;" horiz-adv-x="1335" d="M41 543v280h1223v-639h-299v359h-924z" />
<glyph unicode="&#xad;" horiz-adv-x="888" d="M98 432v301h695v-301h-695z" />
<glyph unicode="&#xae;" horiz-adv-x="942" d="M66 1024q0 178 108 294t297 116q188 0 295.5 -116t107.5 -294t-107.5 -294t-295.5 -116q-189 0 -297 116t-108 294zM139 1024q0 -152 85 -247t247 -95q161 0 245.5 95t84.5 247t-84.5 247t-245.5 95q-162 0 -247 -95t-85 -247zM319 823v412h191q64 0 101.5 -33t37.5 -86 q0 -41 -28.5 -72.5t-73.5 -42.5l96 -178h-76l-90 174h-90v-174h-68zM387 1061h121q72 0 72 55q0 58 -68 58h-125v-113z" />
<glyph unicode="&#xaf;" horiz-adv-x="649" d="M0 1251v215h649v-215h-649z" />
<glyph unicode="&#xb0;" horiz-adv-x="841" d="M45 1061q0 155 111 266t266 111t266 -111t111 -266t-111 -266t-266 -111t-266 111t-111 266zM260 1061q0 -67 47 -114.5t115 -47.5t116 47.5t48 114.5t-48 115.5t-116 48.5q-67 0 -114.5 -48t-47.5 -116z" />
<glyph unicode="&#xb1;" horiz-adv-x="1335" d="M131 0v238h1071v-238h-1071zM131 594v280h391v254h283v-254h397v-280h-397v-252h-283v252h-391z" />
<glyph unicode="&#xb2;" horiz-adv-x="851" d="M43 788v101q0 61 24 116.5t67 100.5t87 78.5t101 66.5q24 14 63 34t57.5 30.5t40.5 25t30.5 27.5t8.5 27q0 22 -25 37.5t-73 15.5q-86 0 -242 -82l-114 166q36 23 63.5 38.5t82.5 40.5t119 38.5t132 13.5q157 0 240 -73.5t83 -180.5q0 -50 -19 -94.5t-44.5 -74.5 t-68.5 -60t-73.5 -46t-76.5 -38q-139 -62 -139 -92h421v-216h-745z" />
<glyph unicode="&#xb3;" horiz-adv-x="841" d="M18 899l115 174q154 -82 275 -82q116 0 116 62q0 18 -9 31.5t-28.5 21.5t-36.5 13t-47 6.5t-45.5 2t-46.5 0.5h-14h-43v215h49q25 0 37.5 0.5t39 1.5t42 5t33 10.5t26 18t8.5 26.5q0 43 -83 43q-106 0 -242 -74l-105 162q22 17 52 34.5t80.5 40.5t119 37.5t140.5 14.5 q151 0 226 -61t75 -154q0 -123 -136 -184q77 -25 126 -84t49 -131q0 -42 -10.5 -80t-36 -74t-64.5 -62.5t-100 -42.5t-138 -16q-208 0 -424 125z" />
<glyph unicode="&#xb4;" horiz-adv-x="507" d="M-80 1200l260 293h408l-361 -293h-307z" />
<glyph unicode="&#xb5;" horiz-adv-x="1312" d="M115 -418v1493h379v-682q2 -61 26.5 -93t83.5 -32t126.5 32t117.5 79v696h377v-1075h-377v113q-187 -119 -354 -133v-398h-379z" />
<glyph unicode="&#xb6;" horiz-adv-x="1552" d="M51 913q0 136 44 238t125.5 163t188 90.5t238.5 29.5h311v-1813h-315v770q-122 0 -225.5 29.5t-187 90t-131.5 163.5t-48 239zM1096 -381v1815h315v-1815h-315z" />
<glyph unicode="&#xb7;" horiz-adv-x="573" d="M98 385v397h379v-397h-379z" />
<glyph unicode="&#xb8;" horiz-adv-x="389" d="M-27 -342l72 176q45 -22 94 -22q88 0 88 65q0 25 -13.5 57t-27.5 51l-14 19h162q3 -4 8.5 -10.5t20 -27.5t25 -43t19.5 -53t9 -60q0 -101 -70.5 -150t-179.5 -49q-114 0 -193 47z" />
<glyph unicode="&#xb9;" horiz-adv-x="618" d="M-4 1503l266 146h252v-861h-262v623l-154 -76z" />
<glyph unicode="&#xba;" horiz-adv-x="851" d="M49 1112q0 161 97.5 248.5t279.5 87.5q181 0 278 -88t97 -250t-97 -249t-278 -87t-279 88t-98 250zM303 1112q0 -147 123 -147q121 0 121 145q0 147 -121 147q-123 0 -123 -145z" />
<glyph unicode="&#xbb;" horiz-adv-x="1392" d="M96 10v350l301 185l-301 186v344l623 -420v-223zM723 10v350l301 185l-301 186v344l623 -420v-223z" />
<glyph unicode="&#xbc;" horiz-adv-x="1912" d="M39 1288l268 146h250v-861h-262v623l-154 -76zM389 0l670 1434h280l-667 -1434h-283zM963 141v178l393 541h350v-504h135v-215h-135v-141h-266v141h-477zM1231 356h209v299z" />
<glyph unicode="&#xbd;" horiz-adv-x="1912" d="M39 1288l268 146h250v-861h-262v623l-154 -76zM389 0l670 1434h280l-667 -1434h-283zM1081 0v100q0 199 279 363q25 14 63 34t57 30.5t40.5 24.5t30 27t8.5 27q0 22 -25 37.5t-72 15.5q-93 0 -241 -81l-115 165q198 131 395 131q158 0 241 -72.5t83 -180.5 q0 -50 -19 -94.5t-44.5 -74.5t-68.5 -60t-74 -46.5t-77 -38.5q-137 -61 -137 -92h420v-215h-744z" />
<glyph unicode="&#xbe;" horiz-adv-x="2080" d="M49 684l115 174q151 -82 274 -82q117 0 117 62q0 18 -9 31.5t-28.5 21.5t-37 13t-48 6.5t-46 2t-46.5 0.5h-14h-41v215h47q26 0 38.5 0.5t39.5 1.5t42.5 5t33 10.5t26 18t8.5 26.5q0 43 -84 43q-105 0 -241 -74l-105 162q33 25 75 49t131.5 51t182.5 27q153 0 228 -60 t75 -155q0 -124 -135 -184q76 -25 125 -84t49 -131q0 -42 -10.5 -80t-36 -74t-64.5 -62.5t-100 -42.5t-139 -16q-206 0 -422 125zM567 0l668 1434h283l-670 -1434h-281zM1139 141v178l393 541h348v-504h137v-215h-137v-141h-262v141h-479zM1409 356h209v299z" />
<glyph unicode="&#xbf;" horiz-adv-x="1138" d="M61 367q0 81 28.5 148t73 113t111.5 84t130.5 61t144.5 44l16 131h234l18 -332q-206 -40 -283 -77t-77 -109q0 -52 42 -90.5t128 -38.5q138 0 307 107l158 -265q-276 -166 -535 -166q-222 0 -359 107t-137 283zM494 1071v363h376v-363h-376z" />
<glyph unicode="&#xc0;" horiz-adv-x="1484" d="M-4 0l528 1434h434l529 -1434h-428l-72 240h-491l-72 -240h-428zM315 1802h408l260 -293h-307zM586 545h309l-156 520z" />
<glyph unicode="&#xc1;" horiz-adv-x="1484" d="M-4 0l528 1434h434l529 -1434h-428l-72 240h-491l-72 -240h-428zM502 1509l258 293h407l-356 -293h-309zM586 545h309l-156 520z" />
<glyph unicode="&#xc2;" horiz-adv-x="1484" d="M-4 0l528 1434h434l529 -1434h-428l-72 240h-491l-72 -240h-428zM344 1509l223 293h348l226 -293h-256l-144 138l-143 -138h-254zM586 545h309l-156 520z" />
<glyph unicode="&#xc3;" horiz-adv-x="1484" d="M-4 0l528 1434h434l529 -1434h-428l-72 240h-491l-72 -240h-428zM328 1595q59 115 90 154q69 85 162 86q50 0 111.5 -24t113 -48t78.5 -24q55 0 106 94l162 -80q-20 -41 -29.5 -59t-30 -53t-37.5 -52.5t-41.5 -38t-52.5 -29t-61 -8.5q-50 0 -111.5 24t-113 48.5 t-78.5 24.5q-56 0 -107 -94zM586 545h309l-156 520z" />
<glyph unicode="&#xc4;" horiz-adv-x="1484" d="M-4 0l528 1434h434l529 -1434h-428l-72 240h-491l-72 -240h-428zM408 1540v264h282v-264h-282zM586 545h309l-156 520zM797 1540v264h282v-264h-282z" />
<glyph unicode="&#xc5;" horiz-adv-x="1484" d="M-4 0l528 1434h434l529 -1434h-428l-72 240h-491l-72 -240h-428zM504 1731q0 98 70.5 168.5t168.5 70.5q100 0 171 -70.5t71 -168.5q0 -100 -71 -171t-171 -71q-98 0 -168.5 71t-70.5 171zM586 545h309l-156 520zM676 1731q0 -29 19.5 -49.5t47.5 -20.5q29 0 49.5 20.5 t20.5 49.5q0 28 -20.5 47.5t-49.5 19.5q-28 0 -47.5 -19.5t-19.5 -47.5z" />
<glyph unicode="&#xc6;" horiz-adv-x="2246" d="M-76 0l965 1434h1274v-332h-682v-223h557v-324h-557v-223h694v-332h-1088v240h-540l-152 -240h-471zM745 555h342v539z" />
<glyph unicode="&#xc7;" horiz-adv-x="1349" d="M66 717q0 184 45 326t127 231.5t192.5 135.5t245.5 46q165 0 316.5 -53t332.5 -152l-180 -288q-133 70 -232.5 105.5t-185.5 35.5q-125 0 -191.5 -104t-66.5 -283t66.5 -283t191.5 -104q86 0 185.5 35.5t232.5 105.5l180 -289q-146 -81 -274 -130.5t-263 -65.5 q66 -89 66 -176q0 -101 -70.5 -150t-179.5 -49q-115 0 -192 47l69 176q47 -22 94 -22q91 0 91 65q0 42 -39 103q-125 8 -227 57.5t-177 139t-116 227.5t-41 313z" />
<glyph unicode="&#xc8;" horiz-adv-x="1284" d="M125 0v1434h1073v-332h-680v-223h553v-324h-553v-223h692v-332h-1085zM244 1802h405l260 -293h-309z" />
<glyph unicode="&#xc9;" horiz-adv-x="1284" d="M125 0v1434h1073v-332h-680v-223h553v-324h-553v-223h692v-332h-1085zM428 1509l260 293h406l-359 -293h-307z" />
<glyph unicode="&#xca;" horiz-adv-x="1284" d="M125 0v1434h1073v-332h-680v-223h553v-324h-553v-223h692v-332h-1085zM268 1509l226 293h346l225 -293h-254l-143 138l-144 -138h-256z" />
<glyph unicode="&#xcb;" horiz-adv-x="1284" d="M125 0v1434h1073v-332h-680v-223h553v-324h-553v-223h692v-332h-1085zM332 1530v266h282v-266h-282zM721 1530v266h283v-266h-283z" />
<glyph unicode="&#xcc;" horiz-adv-x="643" d="M-104 1802h407l258 -293h-307zM127 0v1434h391v-1434h-391z" />
<glyph unicode="&#xcd;" horiz-adv-x="643" d="M82 1509l260 293h408l-361 -293h-307zM125 0v1434h393v-1434h-393z" />
<glyph unicode="&#xce;" horiz-adv-x="643" d="M-78 1509l225 293h349l225 -293h-256l-143 138l-144 -138h-256zM125 0v1434h393v-1434h-393z" />
<glyph unicode="&#xcf;" horiz-adv-x="643" d="M-14 1528v264h282v-264h-282zM123 0v1434h393v-1434h-393zM373 1528v264h282v-264h-282z" />
<glyph unicode="&#xd0;" horiz-adv-x="1540" d="M14 567v299h150v568h557q375 0 562 -170.5t187 -546.5t-187 -546.5t-562 -170.5h-557v567h-150zM559 332h123q79 0 138 9.5t110 35t83 68.5t50 111t18 161t-18 161t-50 111t-83 68.5t-110 35t-138 9.5h-123v-236h266v-299h-266v-235z" />
<glyph unicode="&#xd1;" horiz-adv-x="1546" d="M125 0v1434h397l506 -840v840h393v-1434h-397l-506 836v-836h-393zM371 1614q59 115 91 155q69 83 161 84q50 0 111.5 -24t113 -48t78.5 -24q55 0 106 94l162 -79q-18 -37 -25 -51t-25.5 -46.5t-30.5 -47t-33 -37.5t-39.5 -33t-44.5 -18.5t-54 -8.5q-50 0 -111.5 24.5 t-113 49t-78.5 24.5q-25 0 -50.5 -18.5t-58.5 -75.5z" />
<glyph unicode="&#xd2;" horiz-adv-x="1583" d="M63 717q0 127 25.5 236.5t82 203t140 159.5t206 103t274.5 37q189 0 331.5 -56.5t228 -158t127.5 -233t42 -291.5q0 -127 -25.5 -236.5t-82 -203.5t-140.5 -160t-206.5 -103t-274.5 -37t-274.5 37t-206 103t-140 160t-82 203.5t-25.5 236.5zM365 1802h407l258 -293h-305z M467 717q0 -406 324 -406q323 0 323 406q0 92 -17.5 164t-55 127t-101 84.5t-149.5 29.5q-169 0 -246.5 -107.5t-77.5 -297.5z" />
<glyph unicode="&#xd3;" horiz-adv-x="1583" d="M63 717q0 127 25.5 236.5t82 203t140 159.5t206 103t274.5 37q189 0 331.5 -56.5t228 -158t127.5 -233t42 -291.5q0 -127 -25.5 -236.5t-82 -203.5t-140.5 -160t-206.5 -103t-274.5 -37t-274.5 37t-206 103t-140 160t-82 203.5t-25.5 236.5zM467 717q0 -406 324 -406 q323 0 323 406q0 92 -17.5 164t-55 127t-101 84.5t-149.5 29.5q-169 0 -246.5 -107.5t-77.5 -297.5zM551 1509l258 293h408l-357 -293h-309z" />
<glyph unicode="&#xd4;" horiz-adv-x="1583" d="M63 717q0 127 25.5 236.5t82 203t140 159.5t206 103t274.5 37q189 0 331.5 -56.5t228 -158t127.5 -233t42 -291.5q0 -127 -25.5 -236.5t-82 -203.5t-140.5 -160t-206.5 -103t-274.5 -37t-274.5 37t-206 103t-140 160t-82 203.5t-25.5 236.5zM393 1509l225 293h347 l225 -293h-256l-143 138l-144 -138h-254zM467 717q0 -406 324 -406q323 0 323 406q0 92 -17.5 164t-55 127t-101 84.5t-149.5 29.5q-169 0 -246.5 -107.5t-77.5 -297.5z" />
<glyph unicode="&#xd5;" horiz-adv-x="1583" d="M63 717q0 127 25.5 236.5t82 203t140 159.5t206 103t274.5 37q189 0 331.5 -56.5t228 -158t127.5 -233t42 -291.5q0 -127 -25.5 -236.5t-82 -203.5t-140.5 -160t-206.5 -103t-274.5 -37t-274.5 37t-206 103t-140 160t-82 203.5t-25.5 236.5zM377 1595q59 115 90 154 q69 85 162 86q50 0 111.5 -24t113 -48t78.5 -24q55 0 106 94l162 -80q-20 -41 -29.5 -59t-30 -53t-37.5 -52.5t-41.5 -38t-52.5 -29t-61 -8.5q-50 0 -111.5 24t-113 48.5t-78.5 24.5q-16 0 -29.5 -5t-34.5 -27t-44 -62zM467 717q0 -406 324 -406q323 0 323 406 q0 92 -17.5 164t-55 127t-101 84.5t-149.5 29.5q-169 0 -246.5 -107.5t-77.5 -297.5z" />
<glyph unicode="&#xd6;" horiz-adv-x="1583" d="M63 717q0 127 25.5 236.5t82 203t140 159.5t206 103t274.5 37q189 0 331.5 -56.5t228 -158t127.5 -233t42 -291.5q0 -127 -25.5 -236.5t-82 -203.5t-140.5 -160t-206.5 -103t-274.5 -37t-274.5 37t-206 103t-140 160t-82 203.5t-25.5 236.5zM457 1530v266h282v-266h-282z M467 717q0 -406 324 -406q323 0 323 406q0 92 -17.5 164t-55 127t-101 84.5t-149.5 29.5q-169 0 -246.5 -107.5t-77.5 -297.5zM846 1530v266h280v-266h-280z" />
<glyph unicode="&#xd7;" horiz-adv-x="1335" d="M186 938l205 205l275 -256l274 254l209 -205l-266 -248l268 -248l-207 -204l-274 253l-273 -251l-209 206l265 246z" />
<glyph unicode="&#xd8;" horiz-adv-x="1583" d="M63 717q0 127 25.5 236.5t82 203t140 159.5t206 103t274.5 37q227 0 389 -84l49 62h266l-149 -189q172 -192 172 -528q0 -127 -25.5 -236.5t-81.5 -203.5t-140 -160t-206 -103t-274 -37q-231 0 -392 82l-47 -59h-264l148 186q-173 193 -173 531zM467 717q0 -119 29 -205 l456 573q-67 37 -161 37q-169 0 -246.5 -107.5t-77.5 -297.5zM629 346q65 -35 162 -35q323 0 323 406q0 108 -29 203z" />
<glyph unicode="&#xd9;" horiz-adv-x="1490" d="M111 614v820h393v-856q0 -62 9.5 -106t34.5 -83t74 -58.5t123 -19.5q73 0 122.5 20t74.5 58.5t35 83t10 105.5v856h393v-820q0 -80 -7.5 -146.5t-27 -133t-50.5 -119t-80.5 -98t-114.5 -76t-155 -47.5t-200 -17t-200 17t-155 47.5t-114.5 76t-80.5 97.5t-50 119 t-26.5 133.5t-7.5 146.5zM319 1802h408l258 -293h-305z" />
<glyph unicode="&#xda;" horiz-adv-x="1490" d="M111 614v820h393v-856q0 -62 9.5 -106t34.5 -83t74 -58.5t123 -19.5q73 0 122.5 20t74.5 58.5t35 83t10 105.5v856h393v-820q0 -80 -7.5 -146.5t-27 -133t-50.5 -119t-80.5 -98t-114.5 -76t-155 -47.5t-200 -17t-200 17t-155 47.5t-114.5 76t-80.5 97.5t-50 119 t-26.5 133.5t-7.5 146.5zM506 1509l258 293h407l-358 -293h-307z" />
<glyph unicode="&#xdb;" horiz-adv-x="1490" d="M111 614v820h393v-856q0 -62 9.5 -106t34.5 -83t74 -58.5t123 -19.5q73 0 122.5 20t74.5 58.5t35 83t10 105.5v856h393v-820q0 -80 -7.5 -146.5t-27 -133t-50.5 -119t-80.5 -98t-114.5 -76t-155 -47.5t-200 -17t-200 17t-155 47.5t-114.5 76t-80.5 97.5t-50 119 t-26.5 133.5t-7.5 146.5zM348 1509l223 293h349l225 -293h-256l-144 138l-145 -138h-252z" />
<glyph unicode="&#xdc;" horiz-adv-x="1490" d="M111 614v820h393v-856q0 -62 9.5 -106t34.5 -83t74 -58.5t123 -19.5q73 0 122.5 20t74.5 58.5t35 83t10 105.5v856h393v-820q0 -80 -7.5 -146.5t-27 -133t-50.5 -119t-80.5 -98t-114.5 -76t-155 -47.5t-200 -17t-200 17t-155 47.5t-114.5 76t-80.5 97.5t-50 119 t-26.5 133.5t-7.5 146.5zM412 1530v266h280v-266h-280zM799 1530v266h282v-266h-282z" />
<glyph unicode="&#xdd;" horiz-adv-x="1396" d="M-10 1434h442l266 -527l267 527h442l-514 -869l2 -565h-393v569zM461 1509l258 293h407l-360 -293h-305z" />
<glyph unicode="&#xde;" horiz-adv-x="1411" d="M125 0v1434h393v-213h250q600 0 600 -482q0 -477 -600 -477h-250v-262h-393zM518 582h170q152 0 217.5 33t65.5 124q0 93 -65 125.5t-218 32.5h-170v-315z" />
<glyph unicode="&#xdf;" horiz-adv-x="1548" d="M100 0v979q0 73 19.5 138t68 128.5t124 109t196 73.5t274.5 28q156 0 277.5 -28.5t196 -74.5t123 -109t67 -126t18.5 -133v-8l-155 -240q-59 27 -151.5 52.5t-143.5 25.5q-35 0 -53.5 -12.5t-18.5 -30.5q0 -10 5 -18.5t17 -16t24.5 -13.5t34.5 -12.5t40 -11.5t48 -13.5 t52 -14.5q51 -15 92.5 -31.5t91 -47t83 -67t56.5 -93t23 -124.5q0 -151 -105 -241.5t-310 -90.5q-146 0 -299.5 43.5t-251.5 100.5l143 264q76 -42 193.5 -81.5t177.5 -39.5q31 0 51 11t20 30q0 12 -9 22t-33 20t-44.5 17t-65.5 20.5t-75 23.5q-56 18 -96.5 35t-89.5 47 t-80 65t-52.5 88.5t-21.5 118.5q0 149 104 242.5t304 93.5q21 0 75 -4q-68 75 -262 75q-60 0 -106.5 -7t-78 -18.5t-54 -30.5t-35 -37t-19.5 -44t-8.5 -46.5t-1.5 -49.5v-936h-379z" />
<glyph unicode="&#xe0;" horiz-adv-x="1247" d="M37 336q0 158 111.5 250t293.5 92q55 0 118 -7.5t138 -21t80 -14.5v53q0 72 -36.5 99.5t-131.5 27.5q-132 0 -387 -74l-114 256q316 101 577 101q254 0 362.5 -99t108.5 -335v-664h-379v117q-155 -140 -360 -140q-172 0 -276.5 102t-104.5 257zM209 1493h405l260 -293 h-309zM418 371q0 -53 34 -80t93 -27q126 0 233 88v105q-133 26 -209 26q-151 0 -151 -112z" />
<glyph unicode="&#xe1;" horiz-adv-x="1247" d="M37 336q0 158 111.5 250t293.5 92q55 0 118 -7.5t138 -21t80 -14.5v53q0 72 -36.5 99.5t-131.5 27.5q-132 0 -387 -74l-114 256q316 101 577 101q254 0 362.5 -99t108.5 -335v-664h-379v117q-155 -140 -360 -140q-172 0 -276.5 102t-104.5 257zM393 1200l258 293h408 l-359 -293h-307zM418 371q0 -53 34 -80t93 -27q126 0 233 88v105q-133 26 -209 26q-151 0 -151 -112z" />
<glyph unicode="&#xe2;" horiz-adv-x="1247" d="M37 336q0 158 111.5 250t293.5 92q55 0 118 -7.5t138 -21t80 -14.5v53q0 72 -36.5 99.5t-131.5 27.5q-132 0 -387 -74l-114 256q316 101 577 101q254 0 362.5 -99t108.5 -335v-664h-379v117q-155 -140 -360 -140q-172 0 -276.5 102t-104.5 257zM233 1200l226 293h348 l223 -293h-256l-143 137l-142 -137h-256zM418 371q0 -53 34 -80t93 -27q126 0 233 88v105q-133 26 -209 26q-151 0 -151 -112z" />
<glyph unicode="&#xe3;" horiz-adv-x="1247" d="M37 336q0 158 111.5 250t293.5 92q55 0 118 -7.5t138 -21t80 -14.5v53q0 72 -36.5 99.5t-131.5 27.5q-132 0 -387 -74l-114 256q316 101 577 101q254 0 362.5 -99t108.5 -335v-664h-379v117q-155 -140 -360 -140q-172 0 -276.5 102t-104.5 257zM221 1286q59 115 90 154 q69 85 162 86q50 0 111.5 -24t113 -48t78.5 -24q56 0 107 94l161 -80q-24 -49 -35.5 -70.5t-38 -61.5t-48 -58.5t-56 -34t-73.5 -15.5q-50 0 -111.5 24t-113.5 48t-79 24q-16 0 -29.5 -5t-34.5 -27t-44 -62zM418 371q0 -53 34 -80t93 -27q126 0 233 88v105q-133 26 -209 26 q-151 0 -151 -112z" />
<glyph unicode="&#xe4;" horiz-adv-x="1247" d="M37 336q0 158 111.5 250t293.5 92q55 0 118 -7.5t138 -21t80 -14.5v53q0 72 -36.5 99.5t-131.5 27.5q-132 0 -387 -74l-114 256q316 101 577 101q254 0 362.5 -99t108.5 -335v-664h-379v117q-155 -140 -360 -140q-172 0 -276.5 102t-104.5 257zM297 1221v266h283v-266 h-283zM418 371q0 -53 34 -80t93 -27q126 0 233 88v105q-133 26 -209 26q-151 0 -151 -112zM686 1221v266h283v-266h-283z" />
<glyph unicode="&#xe5;" horiz-adv-x="1247" d="M37 336q0 158 111.5 250t293.5 92q55 0 118 -7.5t138 -21t80 -14.5v53q0 72 -36.5 99.5t-131.5 27.5q-132 0 -387 -74l-114 256q316 101 577 101q254 0 362.5 -99t108.5 -335v-664h-379v117q-155 -140 -360 -140q-172 0 -276.5 102t-104.5 257zM393 1421q0 98 71 169 t169 71q99 0 170 -70.5t71 -169.5q0 -100 -70.5 -170.5t-170.5 -70.5q-99 0 -169.5 71t-70.5 170zM418 371q0 -53 34 -80t93 -27q126 0 233 88v105q-133 26 -209 26q-151 0 -151 -112zM565 1421q0 -29 20 -49t48 -20q29 0 49 20t20 49q0 28 -20 48t-49 20q-28 0 -48 -20 t-20 -48z" />
<glyph unicode="&#xe6;" horiz-adv-x="1908" d="M37 336q0 158 111.5 250t293.5 92q105 0 320 -43q2 28 14 82q-6 55 -43 76.5t-123 21.5q-132 0 -387 -74l-114 256q316 101 577 101q214 0 324 -70q131 70 307 70q133 0 236.5 -36t169 -100.5t99 -152t33.5 -193.5q0 -40 -5 -79.5t-10 -58.5l-5 -19h-692 q12 -105 57.5 -155t134.5 -50q143 0 394 121l131 -232q-308 -166 -566 -166q-146 0 -261 51.5t-185 155.5q-190 -207 -430 -207q-172 0 -276.5 102t-104.5 257zM418 371q0 -53 34 -80t93 -27q119 0 231 86q-13 55 -16 105q-124 28 -191 28q-151 0 -151 -112zM1145 653h340 q-3 181 -166 181q-76 0 -118 -45.5t-56 -135.5z" />
<glyph unicode="&#xe7;" horiz-adv-x="1075" d="M51 539q0 142 41.5 252t113.5 175.5t161 98.5t190 33q205 0 494 -125l-148 -279q-187 82 -280 82q-90 0 -138.5 -64t-48.5 -173t48.5 -174.5t138.5 -65.5q93 0 280 82l148 -279q-222 -101 -416 -120q63 -78 63 -172q0 -101 -70 -150t-179 -49q-114 0 -193 47l72 176 q45 -22 94 -22q90 0 90 65q0 47 -43 107q-87 13 -160.5 52.5t-132.5 105.5t-92 168t-33 229z" />
<glyph unicode="&#xe8;" horiz-adv-x="1202" d="M51 532q0 266 147.5 416t413.5 150q133 0 236.5 -36t169 -100.5t99.5 -152t34 -193.5q0 -40 -5.5 -79t-10.5 -59l-5 -19h-692q11 -104 58 -154.5t135 -50.5q144 0 391 121l135 -232q-56 -30 -90 -46t-118.5 -50t-176 -52t-182.5 -18q-115 0 -211.5 33t-170.5 99 t-115.5 174t-41.5 249zM199 1493h407l258 -293h-307zM440 653h342q-3 181 -166 181q-148 0 -176 -181z" />
<glyph unicode="&#xe9;" horiz-adv-x="1202" d="M51 532q0 266 147.5 416t413.5 150q133 0 236.5 -36t169 -100.5t99.5 -152t34 -193.5q0 -40 -5.5 -79t-10.5 -59l-5 -19h-692q11 -104 58 -154.5t135 -50.5q144 0 391 121l135 -232q-56 -30 -90 -46t-118.5 -50t-176 -52t-182.5 -18q-115 0 -211.5 33t-170.5 99 t-115.5 174t-41.5 249zM385 1200l256 293h410l-359 -293h-307zM440 653h342q-3 181 -166 181q-148 0 -176 -181z" />
<glyph unicode="&#xea;" horiz-adv-x="1202" d="M51 532q0 266 147.5 416t413.5 150q133 0 236.5 -36t169 -100.5t99.5 -152t34 -193.5q0 -40 -5.5 -79t-10.5 -59l-5 -19h-692q11 -104 58 -154.5t135 -50.5q144 0 391 121l135 -232q-56 -30 -90 -46t-118.5 -50t-176 -52t-182.5 -18q-115 0 -211.5 33t-170.5 99 t-115.5 174t-41.5 249zM225 1200l226 293h346l225 -293h-256l-143 137l-142 -137h-256zM440 653h342q-3 181 -166 181q-148 0 -176 -181z" />
<glyph unicode="&#xeb;" horiz-adv-x="1202" d="M51 532q0 266 147.5 416t413.5 150q133 0 236.5 -36t169 -100.5t99.5 -152t34 -193.5q0 -40 -5.5 -79t-10.5 -59l-5 -19h-692q11 -104 58 -154.5t135 -50.5q144 0 391 121l135 -232q-56 -30 -90 -46t-118.5 -50t-176 -52t-182.5 -18q-115 0 -211.5 33t-170.5 99 t-115.5 174t-41.5 249zM289 1221v266h282v-266h-282zM440 653h342q-3 181 -166 181q-148 0 -176 -181zM678 1221v266h283v-266h-283z" />
<glyph unicode="&#xec;" horiz-adv-x="579" d="M-137 1493h407l260 -293h-307zM100 0v1075h379v-1075h-379z" />
<glyph unicode="&#xed;" horiz-adv-x="579" d="M51 1200l260 293h408l-361 -293h-307zM102 0v1075h377v-1075h-377z" />
<glyph unicode="&#xee;" horiz-adv-x="579" d="M-109 1200l226 293h346l225 -293h-256l-143 137l-144 -137h-254zM100 0v1075h379v-1075h-379z" />
<glyph unicode="&#xef;" horiz-adv-x="579" d="M-45 1221v266h283v-266h-283zM100 0v1075h379v-1075h-379zM342 1221v266h283v-266h-283z" />
<glyph unicode="&#xf0;" horiz-adv-x="1314" d="M53 477q0 223 140 360.5t354 137.5q65 0 123 -13.5t94.5 -32t63 -37.5t38.5 -32l11 -14q-29 91 -99 157.5t-174 100.5l-72 -86h-292l100 121q-38 -2 -73.5 -6t-51.5 -7l-16 -4l-41 289q82 23 225 23q90 0 190 -17l62 76h295l-121 -145q220 -99 336.5 -297t116.5 -445 q0 -295 -165 -462t-458 -167q-274 0 -430 135t-156 365zM446 475q0 -40 10.5 -75.5t34.5 -67t68.5 -50t106.5 -18.5q61 0 105.5 18t68 49.5t34.5 67t11 76.5t-11 76.5t-34.5 67.5t-68 50.5t-105.5 18.5q-62 0 -106.5 -18.5t-68.5 -51t-34.5 -67.5t-10.5 -76z" />
<glyph unicode="&#xf1;" d="M100 0v1075h379v-112q202 135 400 135q333 0 333 -344v-754h-378v664q0 69 -24.5 106t-86.5 37q-61 0 -128 -32.5t-116 -80.5v-694h-379zM242 1284q59 115 90 154q69 85 162 86q50 0 111.5 -24t113 -48.5t78.5 -24.5q52 0 106 95l160 -80q-18 -37 -25 -51t-25.5 -46.5 t-30.5 -47t-33 -37.5t-39.5 -33t-44.5 -18.5t-54 -8.5q-49 0 -110 24.5t-112.5 49t-78.5 24.5q-25 0 -50.5 -18.5t-58.5 -75.5z" />
<glyph unicode="&#xf2;" horiz-adv-x="1280" d="M51 539q0 268 152.5 413.5t437.5 145.5q283 0 435.5 -146.5t152.5 -414.5t-152.5 -414t-435.5 -146q-284 0 -437 147t-153 415zM215 1493h406l260 -293h-308zM432 539q0 -275 209 -275q207 0 207 273q0 133 -51.5 203.5t-155.5 70.5q-209 0 -209 -272z" />
<glyph unicode="&#xf3;" horiz-adv-x="1280" d="M51 539q0 268 152.5 413.5t437.5 145.5q283 0 435.5 -146.5t152.5 -414.5t-152.5 -414t-435.5 -146q-284 0 -437 147t-153 415zM399 1200l260 293h406l-356 -293h-310zM432 539q0 -275 209 -275q207 0 207 273q0 133 -51.5 203.5t-155.5 70.5q-209 0 -209 -272z" />
<glyph unicode="&#xf4;" horiz-adv-x="1280" d="M51 539q0 268 152.5 413.5t437.5 145.5q283 0 435.5 -146.5t152.5 -414.5t-152.5 -414t-435.5 -146q-284 0 -437 147t-153 415zM242 1200l225 293h346l225 -293h-254l-143 137l-143 -137h-256zM432 539q0 -275 209 -275q207 0 207 273q0 133 -51.5 203.5t-155.5 70.5 q-209 0 -209 -272z" />
<glyph unicode="&#xf5;" horiz-adv-x="1280" d="M51 539q0 268 152.5 413.5t437.5 145.5q283 0 435.5 -146.5t152.5 -414.5t-152.5 -414t-435.5 -146q-284 0 -437 147t-153 415zM240 1253q14 36 20 50.5t21.5 48t26.5 48.5t30.5 38.5t38.5 34.5t46 19.5t58 8.5q58 0 154.5 -36.5t142.5 -39.5q79 -5 113 76l151 -49 q-4 -8 -16.5 -38t-18.5 -43t-20 -40t-25 -40.5t-29.5 -33t-37 -29t-43.5 -17t-53 -7.5q-59 0 -156 37t-139 39q-81 4 -115 -76zM432 539q0 -275 209 -275q207 0 207 273q0 133 -51.5 203.5t-155.5 70.5q-209 0 -209 -272z" />
<glyph unicode="&#xf6;" horiz-adv-x="1280" d="M51 539q0 268 152.5 413.5t437.5 145.5q283 0 435.5 -146.5t152.5 -414.5t-152.5 -414t-435.5 -146q-284 0 -437 147t-153 415zM305 1221v266h283v-266h-283zM432 539q0 -275 209 -275q207 0 207 273q0 133 -51.5 203.5t-155.5 70.5q-209 0 -209 -272zM694 1221v266h283 v-266h-283z" />
<glyph unicode="&#xf7;" horiz-adv-x="1335" d="M131 543v280h1071v-280h-1071zM494 297q0 70 50.5 118t121.5 48q72 0 123 -48t51 -118q0 -69 -51 -117.5t-123 -48.5q-71 0 -121.5 48.5t-50.5 117.5zM494 1071q0 69 51.5 117.5t122.5 48.5t121.5 -48.5t50.5 -117.5t-50.5 -118.5t-121.5 -49.5t-122.5 49.5t-51.5 118.5z " />
<glyph unicode="&#xf8;" horiz-adv-x="1280" d="M49 539q0 268 152.5 413.5t437.5 145.5q177 0 311 -64l35 41h209l-111 -131q146 -149 146 -407q0 -268 -152.5 -414t-437.5 -146q-180 0 -317 64l-35 -41h-215l116 137q-139 145 -139 402zM432 539q0 -62 8 -103l299 352q-44 23 -100 23q-207 0 -207 -272zM532 291 q44 -27 107 -27q209 0 209 273q0 61 -12 114z" />
<glyph unicode="&#xf9;" d="M92 322v753h379v-663q0 -70 24 -107t87 -37q60 0 126.5 32t116.5 79v696h377v-1075h-377v113q-202 -136 -401 -136q-332 0 -332 345zM221 1493h408l258 -293h-307z" />
<glyph unicode="&#xfa;" d="M92 322v753h379v-663q0 -70 24 -107t87 -37q60 0 126.5 32t116.5 79v696h377v-1075h-377v113q-202 -136 -401 -136q-332 0 -332 345zM408 1200l258 293h407l-358 -293h-307z" />
<glyph unicode="&#xfb;" d="M92 322v753h379v-663q0 -70 24 -107t87 -37q60 0 126.5 32t116.5 79v696h377v-1075h-377v113q-202 -136 -401 -136q-332 0 -332 345zM248 1200l223 293h348l225 -293h-253l-144 137l-143 -137h-256z" />
<glyph unicode="&#xfc;" d="M92 322v753h379v-663q0 -70 24 -107t87 -37q60 0 126.5 32t116.5 79v696h377v-1075h-377v113q-202 -136 -401 -136q-332 0 -332 345zM311 1221v266h283v-266h-283zM700 1221v266h283v-266h-283z" />
<glyph unicode="&#xfd;" horiz-adv-x="1226" d="M4 1075h406l204 -620l203 620h408l-586 -1493h-403l186 420zM373 1200l260 293h405l-356 -293h-309z" />
<glyph unicode="&#xfe;" d="M100 -418v1911h379v-524q76 63 157 96t189 33q197 0 311.5 -145.5t114.5 -415.5q0 -267 -114.5 -413.5t-311.5 -146.5q-107 0 -187.5 32t-158.5 93v-520h-379zM479 393q98 -114 221 -114q168 0 168 260q0 258 -168 258q-121 0 -221 -117v-287z" />
<glyph unicode="&#xff;" horiz-adv-x="1226" d="M4 1075h406l204 -620l203 620h408l-586 -1493h-403l186 420zM279 1221v266h282v-266h-282zM668 1221v266h282v-266h-282z" />
<glyph unicode="&#x152;" horiz-adv-x="2277" d="M63 717q0 127 25.5 236.5t82 203t140 159.5t206 103t274.5 37q182 0 327 -55v33h1073v-332h-682v-223h555v-324h-555v-223h693v-332h-1084v33q-147 -56 -327 -56q-152 0 -274.5 37t-206 103t-140 160t-82 203.5t-25.5 236.5zM467 717q0 -406 324 -406q323 0 323 406 q0 92 -17.5 164t-55 127t-101 84.5t-149.5 29.5q-169 0 -246.5 -107.5t-77.5 -297.5z" />
<glyph unicode="&#x153;" horiz-adv-x="2000" d="M51 539q0 268 152.5 413.5t437.5 145.5q248 0 395 -113q148 113 375 113q261 0 399 -132t138 -350q0 -40 -5 -79t-9 -59l-5 -19h-692q11 -105 55.5 -155t132.5 -50q150 0 394 121l133 -232q-308 -166 -566 -166q-216 0 -354 109q-145 -109 -391 -109q-284 0 -437 147 t-153 415zM432 539q0 -275 209 -275q207 0 207 273q0 133 -51.5 203.5t-155.5 70.5q-209 0 -209 -272zM1239 653h340q-6 181 -166 181q-78 0 -120 -45.5t-54 -135.5z" />
<glyph unicode="&#x178;" horiz-adv-x="1396" d="M-10 1434h442l266 -527l267 527h442l-514 -869l2 -565h-393v569zM362 1530v266h283v-266h-283zM754 1530v266h280v-266h-280z" />
<glyph unicode="&#x2c6;" horiz-adv-x="620" d="M-88 1200l225 293h346l226 -293h-254l-144 137l-143 -137h-256z" />
<glyph unicode="&#x2dc;" horiz-adv-x="632" d="M-94 1286q59 115 90 154q69 85 162 86q49 0 110 -24t112.5 -48t78.5 -24q16 0 29.5 5t34.5 27t44 62l160 -80q-20 -41 -29.5 -59t-30 -53t-37.5 -52.5t-41.5 -38t-52.5 -29t-61 -8.5q-50 0 -111.5 24t-113 48t-78.5 24q-15 0 -28 -5t-34 -27t-44 -62z" />
<glyph unicode="&#x2000;" horiz-adv-x="985" />
<glyph unicode="&#x2001;" horiz-adv-x="1970" />
<glyph unicode="&#x2002;" horiz-adv-x="985" />
<glyph unicode="&#x2003;" horiz-adv-x="1970" />
<glyph unicode="&#x2004;" horiz-adv-x="656" />
<glyph unicode="&#x2005;" horiz-adv-x="492" />
<glyph unicode="&#x2006;" horiz-adv-x="328" />
<glyph unicode="&#x2007;" horiz-adv-x="328" />
<glyph unicode="&#x2008;" horiz-adv-x="246" />
<glyph unicode="&#x2009;" horiz-adv-x="394" />
<glyph unicode="&#x200a;" horiz-adv-x="109" />
<glyph unicode="&#x2010;" horiz-adv-x="888" d="M98 432v301h695v-301h-695z" />
<glyph unicode="&#x2011;" horiz-adv-x="888" d="M98 432v301h695v-301h-695z" />
<glyph unicode="&#x2012;" horiz-adv-x="888" d="M98 432v301h695v-301h-695z" />
<glyph unicode="&#x2013;" horiz-adv-x="1155" d="M98 434v297h957v-297h-957z" />
<glyph unicode="&#x2014;" horiz-adv-x="1378" d="M98 434v297h1180v-297h-1180z" />
<glyph unicode="&#x2018;" horiz-adv-x="563" d="M72 1165l305 310l96 -123l-170 -240h166v-397h-375z" />
<glyph unicode="&#x2019;" horiz-adv-x="534" d="M80 797l172 239h-168v398h375l22 -451l-303 -309z" />
<glyph unicode="&#x201a;" horiz-adv-x="573" d="M92 -238l172 238h-168v397h375l23 -448l-304 -311z" />
<glyph unicode="&#x201c;" horiz-adv-x="1079" d="M72 1165l305 310l96 -123l-170 -240h166v-397h-375zM586 1165l307 310l96 -123l-170 -240h166v-397h-377z" />
<glyph unicode="&#x201d;" horiz-adv-x="1050" d="M80 797l172 239h-168v398h375l22 -451l-303 -309zM596 797l170 239h-166v398h377l22 -451l-307 -309z" />
<glyph unicode="&#x201e;" horiz-adv-x="1089" d="M92 -238l172 238h-168v397h375l23 -448l-304 -311zM608 -238l170 238h-166v397h377l23 -448l-307 -311z" />
<glyph unicode="&#x2022;" horiz-adv-x="976" d="M125 584q0 151 106 257.5t258 106.5q151 0 258 -106.5t107 -257.5q0 -152 -107 -257.5t-258 -105.5q-152 0 -258 105.5t-106 257.5z" />
<glyph unicode="&#x2026;" horiz-adv-x="1673" d="M94 0v397h379v-397h-379zM647 0v397h379v-397h-379zM1200 0v397h379v-397h-379z" />
<glyph unicode="&#x202f;" horiz-adv-x="394" />
<glyph unicode="&#x2039;" horiz-adv-x="765" d="M47 432v223l623 422v-346l-305 -186l305 -187v-348z" />
<glyph unicode="&#x203a;" horiz-adv-x="765" d="M96 10v350l301 185l-301 186v344l623 -420v-223z" />
<glyph unicode="&#x205f;" horiz-adv-x="492" />
<glyph unicode="&#x20ac;" horiz-adv-x="1507" d="M63 477v191h121v88h-121v190h142q48 252 204 381t386 129q164 0 316.5 -53.5t332.5 -151.5l-180 -288q-132 69 -232.5 105t-185.5 36q-153 0 -219 -158h395v-190h-434v-88h434v-191h-391q64 -147 215 -147q85 0 185.5 36t232.5 105l180 -289q-180 -98 -332.5 -151.5 t-316.5 -53.5q-227 0 -382 126.5t-206 373.5h-144z" />
<glyph unicode="&#x2122;" horiz-adv-x="1284" d="M100 1319v115h451v-115h-158v-344h-139v344h-154zM602 975v459h146l139 -246l139 246h145v-459h-139v258l-102 -182h-84l-107 188v-264h-137z" />
<glyph unicode="&#xe000;" horiz-adv-x="1075" d="M0 0v1075h1075v-1075h-1075z" />
</font>
</defs>
</svg>
