<?xml version="1.0" standalone="no"?>
<!DOCTYPE svg PUBLIC "-//W3C//DTD SVG 1.1//EN" "http://www.w3.org/Graphics/SVG/1.1/DTD/svg11.dtd" >
<svg xmlns="http://www.w3.org/2000/svg">
<metadata></metadata>
<defs>
<font id="verbregular_italic" horiz-adv-x="1259" >
<font-face units-per-em="2048" ascent="1638" descent="-410" />
<missing-glyph horiz-adv-x="577" />
<glyph unicode="&#xfb01;" horiz-adv-x="1224" d="M-184 -301q49 14 83 25.5t63.5 27t47.5 26.5t34.5 33t25 37t17.5 49t14 58t14 74l161 915h-145l23 131h145l27 150q25 142 85 205t175 63q105 0 266 -63l-66 -119q-120 35 -170 35q-54 0 -81.5 -31t-38.5 -90l-27 -150h287l-23 -131h-287l-159 -905q-17 -95 -25.5 -136.5 t-29 -100t-44.5 -83t-70 -57.5t-108 -53.5t-155 -44.5zM780 0l191 1075h170l-191 -1075h-170zM999 1288l35 199h187l-33 -199h-189z" />
<glyph unicode="&#xfb02;" horiz-adv-x="1243" d="M-184 -301q49 14 83 25.5t63.5 27t47.5 26.5t34.5 33t25 37t17.5 49t14 58t14 74l161 915h-145l23 131h145l27 150q25 142 85 205t175 63q105 0 266 -63l-66 -119q-120 35 -170 35q-54 0 -81.5 -31t-38.5 -90l-27 -150h287l-23 -131h-287l-159 -905q-17 -95 -25.5 -136.5 t-29 -100t-44.5 -83t-70 -57.5t-108 -53.5t-155 -44.5zM791 0l264 1493h168l-265 -1493h-167z" />
<glyph unicode="&#xfb03;" horiz-adv-x="1949" d="M-184 -301q49 14 83 25.5t63.5 27t47.5 26.5t34.5 33t25 37t17.5 49t14 58t14 74l161 915h-145l23 131h145l27 150q25 144 85 206t181 62q74 0 171 -26.5t152 -51.5l-67 -117q-47 15 -120.5 31.5t-111.5 16.5q-54 0 -81.5 -31t-38.5 -90l-27 -150h276l-22 -131h-277 l-159 -905q-17 -95 -25.5 -136.5t-29 -100t-44.5 -83t-70 -57.5t-108 -53.5t-155 -44.5zM541 -301q49 14 83.5 25.5t64 27t48 26.5t34.5 33t24.5 37t17.5 48.5t14 58.5t13 74l161 915h-145l25 131h145l27 150q23 142 83 205t175 63q58 0 136 -21t130 -42l-66 -119 q-114 35 -170 35q-98 0 -118 -121l-27 -150h285l-23 -131h-284l-160 -905q-32 -179 -55 -238q-36 -92 -119 -143q-82 -49 -260 -94zM1507 0l191 1075h168l-191 -1075h-168zM1726 1288l35 199h187l-33 -199h-189z" />
<glyph unicode="&#xfb04;" horiz-adv-x="1968" d="M-184 -301q49 14 83 25.5t63.5 27t47.5 26.5t34.5 33t25 37t17.5 49t14 58t14 74l161 915h-145l23 131h145l27 150q25 144 85 206t181 62q74 0 171 -26.5t152 -51.5l-67 -117q-47 15 -120.5 31.5t-111.5 16.5q-54 0 -81.5 -31t-38.5 -90l-27 -150h276l-22 -131h-277 l-159 -905q-17 -95 -25.5 -136.5t-29 -100t-44.5 -83t-70 -57.5t-108 -53.5t-155 -44.5zM541 -301q49 14 83.5 25.5t64 27t48 26.5t34.5 33t24.5 37t17.5 48.5t14 58.5t13 74l161 915h-145l25 131h145l27 150q23 142 83 205t175 63q58 0 136 -21t130 -42l-66 -119 q-114 35 -170 35q-98 0 -118 -121l-27 -150h285l-23 -131h-284l-160 -905q-32 -179 -55 -238q-36 -92 -119 -143q-82 -49 -260 -94zM1516 0l264 1493h170l-264 -1493h-170z" />
<glyph horiz-adv-x="2048" />
<glyph horiz-adv-x="2048" />
<glyph unicode="&#xd;" horiz-adv-x="2048" />
<glyph unicode=" "  horiz-adv-x="577" />
<glyph unicode="&#x09;" horiz-adv-x="577" />
<glyph unicode="&#xa0;" horiz-adv-x="577" />
<glyph unicode="!" horiz-adv-x="542" d="M66 0l40 236h195l-39 -236h-196zM186 428l127 1006h205l-227 -1006h-105z" />
<glyph unicode="&#x22;" horiz-adv-x="831" d="M213 903l61 531h181l-125 -531h-117zM598 903l59 531h183l-129 -531h-113z" />
<glyph unicode="#" horiz-adv-x="1525" d="M57 367l25 135h293l141 428h-272l22 135h293l123 369h143l-123 -369h388l122 369h142l-123 -369h276l-24 -135h-295l-141 -428h272l-21 -135h-297l-120 -367h-142l121 367h-387l-121 -367h-143l121 367h-273zM518 502h387l142 428h-388z" />
<glyph unicode="$" horiz-adv-x="1257" d="M20 162l99 127q193 -120 360 -150l94 531l-14 6q-67 27 -110 47.5t-93 54t-79 69.5t-48.5 89t-19.5 117q0 183 140 293t358 110h6l32 184h132l-35 -196q197 -33 387 -141l-99 -121q-145 81 -315 112l-86 -489q69 -26 118 -48.5t104 -59t88.5 -76t56 -97t22.5 -125.5 q0 -130 -73 -227.5t-191.5 -146t-261.5 -48.5h-10l-31 -182h-131l33 195q-235 39 -433 172zM395 1065q0 -79 49.5 -122.5t161.5 -88.5l80 451q-124 -6 -207.5 -69.5t-83.5 -170.5zM608 129q140 5 234 72.5t94 179.5q0 85 -61.5 138.5t-178.5 101.5z" />
<glyph unicode="%" horiz-adv-x="2025" d="M166 1008q0 194 112.5 321t292.5 127q164 0 258.5 -86t94.5 -233q0 -195 -111.5 -322t-292.5 -127q-165 0 -259.5 86.5t-94.5 233.5zM309 1016q0 -213 217 -213q112 0 183 98.5t71 226.5q0 213 -211 213q-115 0 -187.5 -98.5t-72.5 -226.5zM457 0l997 1434h152 l-1000 -1434h-149zM1141 297q0 194 112 321t291 127q165 0 258.5 -86t93.5 -233q0 -195 -110.5 -322t-292.5 -127q-163 0 -257.5 86.5t-94.5 233.5zM1284 305q0 -213 215 -213q113 0 184.5 98.5t71.5 227.5q0 213 -213 213q-76 0 -136 -48t-91 -122t-31 -156z" />
<glyph unicode="&#x26;" horiz-adv-x="1417" d="M96 315q0 65 22 124.5t55 104.5t86 90.5t101.5 77.5t114.5 70q-67 87 -100 161t-33 165q0 84 33 152t87.5 110t121.5 64t139 22q138 0 234 -74t96 -206q0 -54 -21 -105.5t-51.5 -91.5t-81.5 -83.5t-95.5 -73.5t-109.5 -70l283 -349q120 161 186 353h174 q-33 -110 -99.5 -238t-158.5 -239l228 -279h-195l-139 170q-217 -193 -475 -193q-179 0 -290.5 89.5t-111.5 248.5zM268 322q0 -84 57 -145.5t179 -61.5q198 0 373 172l-314 385q-68 -43 -115 -77.5t-91.5 -78.5t-66.5 -92.5t-22 -101.5zM502 1104q0 -116 104 -246 q52 30 89.5 54t76 55t62.5 60.5t39.5 66t15.5 75.5q0 69 -43.5 111.5t-126.5 42.5q-103 0 -160 -62.5t-57 -156.5z" />
<glyph unicode="'" horiz-adv-x="446" d="M213 903l61 531h181l-125 -531h-117z" />
<glyph unicode="(" horiz-adv-x="628" d="M57 -83q-6 69 15 171l221 1249q7 37 12 61t13 53.5t16.5 47.5t22 40.5t29.5 37.5t38.5 32t50 30t63.5 27t79 26.5t96 25.5l35 -119q-70 -21 -114 -39t-74 -36.5t-46.5 -44.5t-24.5 -52.5t-16 -72.5l-229 -1282q-9 -48 -12 -71.5t-0.5 -51t11.5 -40t32 -30.5t53 -30 t82 -31l-50 -111q-160 43 -228.5 92t-74.5 118z" />
<glyph unicode=")" horiz-adv-x="630" d="M-86 -174q114 34 167.5 65t74 68t34.5 113l228 1282q9 49 12 71.5t0.5 51t-11 40.5t-31.5 29.5t-53.5 29.5t-82.5 30l51 112q158 -43 226.5 -92t75.5 -118t-13 -171l-223 -1249q-9 -47 -15 -75.5t-17 -63t-24.5 -55t-35 -45.5t-49.5 -41.5t-68.5 -35t-91 -34 t-117.5 -31.5z" />
<glyph unicode="*" horiz-adv-x="987" d="M182 997l318 68l-273 176l101 117l217 -244l12 322l152 -29l-99 -303l287 151l53 -145l-315 -70l270 -174l-98 -116l-215 237l-14 -317l-152 26l98 308l-288 -152z" />
<glyph unicode="+" d="M119 614l24 136h437l71 397h140l-70 -397h440l-22 -136h-443l-67 -395h-142l70 395h-438z" />
<glyph unicode="," horiz-adv-x="501" d="M-4 -211l139 211h-90l41 246h195l-23 -260l-215 -262z" />
<glyph unicode="-" horiz-adv-x="886" d="M137 510l25 147h577l-24 -147h-578z" />
<glyph unicode="." horiz-adv-x="497" d="M45 0l43 246h195l-41 -246h-197z" />
<glyph unicode="/" horiz-adv-x="942" d="M-80 -184l991 1802h146l-989 -1802h-148z" />
<glyph unicode="0" horiz-adv-x="1363" d="M135 532q0 77 10 160t33 174t57 175t85.5 160t115 132.5t149 89.5t183.5 33q108 0 194.5 -32.5t142 -86t92 -127t52 -150.5t15.5 -161q0 -77 -10 -159.5t-33 -173.5t-57 -174.5t-85.5 -159.5t-114.5 -132.5t-148 -89.5t-183 -33q-109 0 -195.5 32.5t-142 85.5t-92.5 126 t-52.5 150t-15.5 161zM313 516q0 -57 8 -109t29.5 -105.5t56 -92.5t92 -63.5t132.5 -24.5q99 0 179.5 59.5t130 149.5t83.5 201.5t47.5 208.5t13.5 178q-1 47 -6.5 90t-18.5 89t-37 83t-57.5 67.5t-84 47t-113.5 16.5q-83 0 -153.5 -41.5t-118.5 -111t-85 -153t-57.5 -175 t-30.5 -170.5t-10 -144z" />
<glyph unicode="1" horiz-adv-x="745" d="M154 1243l378 191h160l-254 -1434h-176l223 1245l-272 -133z" />
<glyph unicode="2" horiz-adv-x="1185" d="M-2 0l20 113q13 74 38.5 137t62.5 114t80.5 94t98.5 82.5t110 74t122 74.5q27 16 41 24q70 43 108.5 67t94 62t85 66t60 64t43.5 72.5t13 75.5q-2 84 -66 134.5t-180 50.5q-106 0 -213 -40.5t-182 -88.5l-70 129q238 151 477 151q190 0 300 -90t110 -244q0 -42 -10 -82 t-23.5 -73t-41.5 -69t-51 -62t-65 -60t-69.5 -54.5t-79.5 -53.5t-80.5 -50.5t-87 -51.5t-84.5 -50q-165 -96 -237.5 -171t-94.5 -193h752l-23 -152h-958z" />
<glyph unicode="3" horiz-adv-x="1212" d="M-4 141l94 119q204 -131 399 -131q171 0 278 84.5t107 212.5q0 71 -33 126t-90 87.5t-127 49t-149 16.5h-63l24 153h74q102 0 198.5 34.5t161 100t64.5 144.5q0 77 -62.5 122.5t-169.5 45.5q-96 0 -195.5 -36t-178.5 -83l-58 127q24 17 62.5 37t99.5 46t141 43t158 17 q179 0 281 -85.5t102 -213.5q0 -113 -86 -214.5t-256 -160.5q120 -29 201.5 -127.5t81.5 -230.5q0 -85 -35 -163.5t-102 -142.5t-176 -102.5t-244 -38.5q-263 0 -502 164z" />
<glyph unicode="4" horiz-adv-x="1284" d="M20 317l23 132l854 985h231l-172 -967h220l-27 -150h-219l-56 -317h-176l56 317h-734zM240 467h540l142 793z" />
<glyph unicode="5" horiz-adv-x="1191" d="M16 141l99 117q30 -23 69.5 -47t121 -52t159.5 -28q74 0 145.5 24t130 68t94 113.5t35.5 152.5q0 123 -74 198t-210 75q-134 0 -307 -92l-97 57l201 707h776l-22 -152h-635l-109 -420q115 49 238 49q196 0 309 -118t113 -301q0 -104 -40 -197t-112.5 -164t-181.5 -112.5 t-238 -41.5q-82 0 -157 16t-135.5 45t-96 51t-76.5 52z" />
<glyph unicode="6" horiz-adv-x="1269" d="M119 479q0 198 68.5 378t185 311.5t280.5 209.5t346 78q57 0 110.5 -8t78.5 -16l24 -7l-65 -135q-59 17 -139 17q-226 0 -409 -151.5t-261 -391.5q156 151 383 151q101 0 182.5 -33.5t132.5 -90.5t78 -128.5t27 -150.5q0 -102 -36.5 -197.5t-102.5 -171t-170.5 -121 t-229.5 -45.5q-119 0 -214 43t-152 115t-87 160t-30 184zM293 475q0 -91 32 -168t102.5 -128.5t168.5 -51.5q85 0 155.5 32t116 85.5t70.5 121t25 140.5q0 51 -16.5 98t-48.5 86t-87.5 62.5t-126.5 23.5q-127 0 -236.5 -71.5t-152.5 -147.5q-2 -27 -2 -82z" />
<glyph unicode="7" horiz-adv-x="1032" d="M160 0q22 123 72.5 257.5t108 247.5t133.5 232.5t135 201.5t127 167t95.5 116t53.5 60h-709l25 152h921l-18 -134q-13 -14 -36.5 -38.5t-92 -105t-132.5 -164.5t-146.5 -207.5t-147 -243.5t-120 -264.5t-79.5 -276.5h-190z" />
<glyph unicode="8" horiz-adv-x="1290" d="M68 336q0 292 417 446q-89 50 -142.5 121t-53.5 178q0 167 137 271t346 104q189 0 302.5 -87t113.5 -232q0 -240 -338 -371q285 -137 285 -365q0 -126 -80.5 -223.5t-215 -149t-296.5 -51.5q-215 0 -345 94.5t-130 264.5zM248 348q0 -108 81 -168.5t214 -60.5 q106 0 199 35.5t151.5 103t58.5 150.5q0 178 -288 297q-66 -22 -117 -42.5t-110.5 -53.5t-98 -68.5t-64.5 -85.5t-26 -107zM461 1067q0 -46 19.5 -84t54 -65.5t64.5 -44.5t69 -33q58 18 102 35t92.5 42.5t79.5 53t51.5 66t20.5 81.5q0 83 -67 141t-177 58 q-126 0 -217.5 -74.5t-91.5 -175.5z" />
<glyph unicode="9" horiz-adv-x="1269" d="M92 8l66 135q59 -16 141 -16q224 0 407 151t261 390q-163 -152 -381 -152q-101 0 -183 34t-133 91.5t-78.5 129.5t-27.5 151q0 102 36.5 197.5t103 170.5t171 120.5t230.5 45.5q119 0 214 -43t152 -115t87 -160.5t30 -185.5q0 -198 -69 -378t-186 -311t-281.5 -208.5 t-346.5 -77.5q-57 0 -110.5 7.5t-78.5 15.5zM342 926q0 -109 71.5 -189t207.5 -80q127 0 236.5 72t150.5 148q4 54 4 81q0 66 -19 127.5t-55 111.5t-95.5 80t-133.5 30q-111 0 -196.5 -55t-128 -141t-42.5 -185z" />
<glyph unicode=":" horiz-adv-x="512" d="M49 0l43 246h197l-41 -246h-199zM174 698l41 246h199l-43 -246h-197z" />
<glyph unicode=";" horiz-adv-x="540" d="M12 -211l140 211h-91l41 246h195l-23 -260l-215 -262zM184 698l41 246h197l-41 -246h-197z" />
<glyph unicode="&#x3c;" d="M92 621l23 127l1091 430l-24 -168l-895 -336l770 -336l-25 -148z" />
<glyph unicode="=" d="M86 432l23 135h1019l-22 -135h-1020zM152 801l20 135h1020l-21 -135h-1019z" />
<glyph unicode="&#x3e;" d="M76 190l24 168l895 332l-770 338l25 150l940 -430l-21 -127z" />
<glyph unicode="?" horiz-adv-x="1042" d="M190 1311q241 145 461 145q78 0 146 -19t122 -56t85.5 -98t31.5 -140q0 -93 -42 -170t-117 -131t-164.5 -91.5t-196.5 -60.5l-61 -262h-121l47 365q477 96 477 331q0 91 -62 136t-163 45q-91 0 -176.5 -31.5t-198.5 -91.5zM221 0l39 236h197l-39 -236h-197z" />
<glyph unicode="@" horiz-adv-x="1974" d="M92 383q0 158 45.5 308t136 279t215.5 226.5t294 153t362 55.5q202 0 354 -65t238 -179t118.5 -264.5t6.5 -325.5q-16 -94 -40.5 -178.5t-66 -166t-94 -140.5t-127 -95t-162.5 -36q-58 0 -100 16.5t-64.5 40.5t-35 58.5t-15 64t-0.5 62.5q-181 -150 -362 -150 q-107 0 -182.5 72t-75.5 182q0 90 30 160t81 111.5t113 63t132 21.5q42 0 96 -7t86.5 -13.5t90 -20t63.5 -14.5l20 117q19 107 -14.5 154t-140.5 47q-126 0 -346 -89l-39 113q226 90 401 90q159 0 231.5 -76t42.5 -235l-71 -414q-7 -37 -11 -62.5t-6 -58t3.5 -54t17 -41 t35 -29t57.5 -9.5q46 0 98.5 31.5t104.5 91t94.5 162.5t60.5 231q18 99 11 193t-30.5 176.5t-76 151.5t-124.5 118.5t-176 77t-232 27.5q-214 0 -395.5 -77.5t-301.5 -207t-187 -297.5t-67 -350q0 -191 73 -339.5t217 -235.5t339 -87q108 0 208 24.5t146 48.5l46 24l49 -76 q-7 -4 -21 -11.5t-59.5 -26.5t-95 -33t-126 -26t-153.5 -12q-219 0 -384 100t-250 269t-85 381zM682 319q0 -157 162 -157q73 0 163 43t171 110l36 205q-13 2 -70.5 14t-109 19.5t-94.5 7.5q-70 0 -122 -21.5t-80.5 -58t-42 -77.5t-13.5 -85z" />
<glyph unicode="A" horiz-adv-x="1392" d="M-53 0l801 1434h194l295 -1434h-184l-64 350h-653l-184 -350h-205zM414 496h549l-140 774z" />
<glyph unicode="B" horiz-adv-x="1380" d="M90 0l252 1434h489q209 0 326 -86t117 -234q0 -79 -32 -146t-82 -108.5t-102.5 -67t-101.5 -32.5q32 -5 66 -18t72 -39t68 -60t49.5 -87t19.5 -116q0 -208 -139 -324t-392 -116h-610zM293 143h391q178 0 276.5 88t98.5 224q0 110 -85.5 169.5t-228.5 59.5h-356zM412 821 h338q57 0 115.5 17t111.5 49t86 86.5t33 122.5q0 89 -70 141.5t-213 52.5h-319z" />
<glyph unicode="C" horiz-adv-x="1325" d="M135 559q0 203 56 374t151.5 284t221.5 176t265 63q80 0 153.5 -18t145.5 -57t113 -66t113 -80l-103 -123q-123 94 -215.5 139t-189.5 45q-146 0 -267 -94t-191.5 -262t-70.5 -373q0 -217 80.5 -323.5t214.5 -106.5q185 0 475 182l84 -137q-162 -95 -304.5 -150 t-284.5 -55q-97 0 -176 33t-141 100.5t-96 182t-34 266.5z" />
<glyph unicode="D" horiz-adv-x="1439" d="M90 0l252 1434h379q297 0 461 -138.5t164 -402.5q0 -144 -33.5 -276t-101.5 -244.5t-164.5 -195.5t-230 -130t-290.5 -47h-436zM293 154h209q299 0 481 200t182 537q0 206 -122.5 297.5t-354.5 91.5h-196z" />
<glyph unicode="E" horiz-adv-x="1222" d="M90 0l252 1434h903l-26 -154h-725l-88 -487h600l-27 -152h-598l-88 -487h737l-26 -154h-914z" />
<glyph unicode="F" horiz-adv-x="1169" d="M90 0l252 1434h903l-26 -154h-725l-88 -487h577l-25 -152h-577l-115 -641h-176z" />
<glyph unicode="G" horiz-adv-x="1439" d="M135 541q0 178 38 329t103.5 257.5t154 181.5t189 111t207.5 36q81 0 161 -20.5t152.5 -59.5t124 -74t113.5 -83l-108 -121q-49 37 -68.5 51.5t-73.5 49.5t-91.5 51t-92 31t-104.5 15q-143 0 -262 -93t-189 -261t-70 -377q0 -204 75 -319t220 -115q189 0 463 217l51 287 h-391l25 147h561l-137 -782h-170l31 174q-253 -197 -465 -197q-95 0 -175.5 34.5t-141.5 102t-95.5 177t-34.5 250.5z" />
<glyph unicode="H" horiz-adv-x="1454" d="M90 0l252 1434h178l-106 -607h706l107 607h176l-252 -1434h-176l119 676h-707l-119 -676h-178z" />
<glyph unicode="I" horiz-adv-x="571" d="M90 0l252 1434h178l-252 -1434h-178z" />
<glyph unicode="J" horiz-adv-x="571" d="M-182 -160q63 18 105 33t73 33t47.5 32t29 40t17 46.5t12.5 61.5l238 1348h176l-235 -1342q-25 -136 -46 -184q-36 -78 -126 -126q-83 -44 -248 -85z" />
<glyph unicode="K" horiz-adv-x="1335" d="M90 0l252 1434h178l-139 -787l788 787h228l-699 -691l506 -743h-198l-426 627l-244 -240l-68 -387h-178z" />
<glyph unicode="L" horiz-adv-x="1118" d="M90 0l252 1434h178l-229 -1282h702l-22 -152h-881z" />
<glyph unicode="M" horiz-adv-x="1716" d="M90 0l252 1434h184l295 -998l660 998h184l-252 -1434h-176l197 1120l-580 -880h-113l-270 915l-203 -1155h-178z" />
<glyph unicode="N" horiz-adv-x="1486" d="M90 0l252 1434h182l527 -1190l209 1190h176l-252 -1434h-183l-524 1188l-209 -1188h-178z" />
<glyph unicode="O" horiz-adv-x="1531" d="M133 584v9q-1 107 23 217q24 116 80 232.5t136.5 207.5t203.5 148.5t270 57.5q154 0 268.5 -45t183.5 -128t102.5 -191t33.5 -242v-10q0 -86 -17 -177q-18 -96 -53 -195t-94 -186.5t-135.5 -156t-183 -108.5t-230.5 -40q-153 0 -268 45.5t-183.5 128.5t-102 191 t-34.5 242zM315 584q0 -453 402 -453q91 0 171 34t137 91.5t102 131t72 155t40.5 159t13.5 148.5q0 453 -401 453q-92 0 -172 -34t-137 -92t-102 -131t-72 -154.5t-40.5 -159t-13.5 -148.5z" />
<glyph unicode="P" horiz-adv-x="1320" d="M90 0l252 1434h485q226 0 357 -93t131 -288q0 -230 -160 -363t-428 -133h-360l-99 -557h-178zM391 707h322q89 0 163.5 20.5t132.5 61.5t91 108t33 154q0 121 -82.5 176t-221.5 55h-335z" />
<glyph unicode="Q" horiz-adv-x="1529" d="M133 584v9q0 106 23 217q25 115 80.5 232t136 208t203.5 148.5t270 57.5q154 0 268.5 -45t183.5 -128t102.5 -191t33.5 -242v-10q0 -93 -18 -191q-20 -103 -64 -209t-107.5 -194.5t-159.5 -155.5t-211 -94l209 -201l-131 -110l-262 292q-145 4 -253.5 51.5t-173.5 130 t-97 188.5t-33 237zM315 584q0 -453 402 -453q91 0 171 34t137 91.5t102 131t72 155t40.5 159t13.5 148.5q0 453 -401 453q-92 0 -172 -34t-137 -92t-102 -131t-72 -154.5t-40.5 -159t-13.5 -148.5z" />
<glyph unicode="R" horiz-adv-x="1398" d="M90 0l252 1434h543q223 0 352 -89.5t129 -273.5q0 -189 -129.5 -311.5t-339.5 -147.5l281 -612h-183l-268 608h-352l-107 -608h-178zM399 754h375q189 0 298.5 81t109.5 234q0 115 -83 167t-225 52h-378z" />
<glyph unicode="S" horiz-adv-x="1255" d="M18 162l101 127q256 -160 471 -160q146 0 245 68.5t99 183.5q0 24 -5.5 46t-14 39.5t-25 35.5t-30.5 30.5t-39.5 27.5t-43.5 24.5t-50.5 23.5t-52.5 22t-58 23t-58 23q-55 22 -91.5 39t-81 42.5t-73 53t-54.5 63t-38 80.5t-12 99q0 183 141 293t357 110q255 0 522 -153 l-99 -121q-92 52 -209.5 87.5t-211.5 35.5q-131 0 -221.5 -63.5t-90.5 -176.5q0 -27 7 -50t16 -40t30.5 -34.5t37 -28.5t51.5 -27t57 -24.5t69 -27.5t74 -30q69 -28 114.5 -49.5t100.5 -58t87.5 -75t54.5 -96t22 -125.5q0 -130 -72.5 -227.5t-190.5 -146t-261 -48.5 q-157 0 -307 55t-267 130z" />
<glyph unicode="T" horiz-adv-x="1163" d="M166 1280l24 154h1070l-25 -154h-447l-227 -1280h-176l225 1280h-444z" />
<glyph unicode="U" horiz-adv-x="1435" d="M156 358q1 85 16 181l156 895h180l-164 -916q-10 -58 -13 -104q-1 -16 -1 -30q0 -32 4 -62q6 -46 25.5 -79t52 -59t84.5 -39.5t122 -13.5q105 0 184.5 29.5t129.5 84.5t79.5 121t45.5 152l162 916h178l-164 -926q-93 -531 -615 -531q-123 0 -213 28t-141.5 78t-79.5 120 q-28 68 -28 149v6z" />
<glyph unicode="V" horiz-adv-x="1386" d="M186 1434h193l225 -1248l660 1248h213l-799 -1434h-197z" />
<glyph unicode="W" horiz-adv-x="1912" d="M207 1434h194l84 -1205l527 1205h168l92 -1211l508 1211h205l-644 -1434h-188l-96 1186l-520 -1186h-189z" />
<glyph unicode="X" horiz-adv-x="1267" d="M-63 0l614 713l-338 721h193l253 -609l467 609h217l-595 -721l368 -713h-196l-279 598l-481 -598h-223z" />
<glyph unicode="Y" horiz-adv-x="1288" d="M174 1434h186l283 -729l537 729h209l-672 -867l-99 -567h-176l101 567z" />
<glyph unicode="Z" horiz-adv-x="1255" d="M-27 0l25 141l1038 1139h-790l26 154h1020l-22 -140l-1041 -1140h848l-26 -154h-1078z" />
<glyph unicode="[" horiz-adv-x="696" d="M18 -295l355 2013h448l-20 -119h-273l-313 -1775h272l-20 -119h-449z" />
<glyph unicode="\" horiz-adv-x="911" d="M223 1618h133l365 -1802h-133z" />
<glyph unicode="]" horiz-adv-x="696" d="M-92 -295l20 119h273l313 1775h-272l20 119h449l-355 -2013h-448z" />
<glyph unicode="^" d="M176 711l512 723h176l262 -723h-178l-188 575l-383 -575h-201z" />
<glyph unicode="_" horiz-adv-x="1439" d="M-6 -299l20 129h1131l-21 -129h-1130z" />
<glyph unicode="`" horiz-adv-x="452" d="M256 1493h219l211 -266h-133z" />
<glyph unicode="a" horiz-adv-x="1236" d="M88 358q0 212 63 380.5t179 264t264 95.5q59 0 114 -16t103 -45.5t79 -53.5t68 -59l27 151h170l-190 -1075h-170l28 166q-207 -189 -417 -189q-49 0 -93.5 12t-86 41t-71.5 71.5t-48.5 108.5t-18.5 148zM264 377q0 -121 48.5 -189.5t140.5 -68.5q73 0 149 32t128.5 71.5 t121.5 101.5l82 460q-157 172 -309 172q-109 0 -193 -85.5t-126 -215.5t-42 -278z" />
<glyph unicode="b" horiz-adv-x="1230" d="M57 0l265 1493h170l-99 -555q200 160 381 160q69 0 128 -20.5t109.5 -63.5t79.5 -119.5t29 -179.5q0 -212 -60.5 -379.5t-173 -263t-257.5 -95.5q-62 0 -119.5 15t-106.5 43.5t-80.5 52t-70.5 57.5l-25 -145h-170zM279 287q157 -168 319 -168q105 0 186 85t121.5 215 t40.5 279q0 123 -55 190.5t-162 67.5q-94 0 -180 -46t-184 -128z" />
<glyph unicode="c" horiz-adv-x="1060" d="M86 426q0 158 47.5 288.5t125 212.5t172.5 126.5t194 44.5q28 0 56.5 -3.5t51.5 -7.5t51.5 -13.5t46 -15.5t45 -19.5t39.5 -19.5t38.5 -22t33 -20t31.5 -21l26 -16l-88 -115l-25.5 17t-35 22.5t-38.5 23t-47.5 24.5t-48.5 19t-54 14.5t-54 4.5q-102 0 -191.5 -66.5 t-144.5 -184.5t-55 -259q0 -150 61.5 -232.5t178.5 -82.5q36 0 76 8.5t83.5 26.5t69 30t67.5 34.5t44 23.5l67 -133q-2 -1 -43 -21t-56.5 -26.5t-56.5 -25t-68 -26.5t-66 -19t-75 -15.5t-71 -4.5q-174 0 -280.5 118.5t-106.5 330.5z" />
<glyph unicode="d" horiz-adv-x="1236" d="M88 358q0 212 63 380.5t179 264t264 95.5q59 0 114 -16t103 -45.5t79 -53.5t68 -59l101 569h170l-264 -1493h-170l28 166q-207 -189 -417 -189q-49 0 -93.5 12t-86 41t-71.5 71.5t-48.5 108.5t-18.5 148zM264 377q0 -121 48.5 -189.5t140.5 -68.5q73 0 149 32t128.5 71.5 t121.5 101.5l82 460q-157 172 -309 172q-109 0 -193 -85.5t-126 -215.5t-42 -278z" />
<glyph unicode="e" horiz-adv-x="1142" d="M86 442q0 188 73.5 336.5t211.5 234t317 85.5q174 0 272.5 -79.5t98.5 -203.5q0 -354 -678 -354h-121v-25q0 -155 64.5 -239t189.5 -84q30 0 62 4.5t67.5 16t60.5 20t63 27t53.5 26t53.5 27.5t41 22l66 -123q-287 -156 -492 -156q-186 0 -294.5 118.5t-108.5 346.5z M272 571h123q247 0 371.5 64t124.5 176q0 72 -59 114t-152 42q-150 0 -261.5 -112t-146.5 -284z" />
<glyph unicode="f" horiz-adv-x="722" d="M-184 -301q49 14 83.5 25.5t64 27t48 26.5t34.5 33t24.5 37t17.5 48.5t14 58.5t13 74l161 915h-145l25 131h145l27 150q24 143 84 205.5t180 62.5q75 0 171 -26t155 -52l-78 -117q-41 14 -113.5 31t-110.5 17q-98 0 -118 -121l-27 -150h285l-23 -131h-284l-160 -905 q-32 -179 -55 -238q-36 -92 -119 -143q-82 -49 -260 -94z" />
<glyph unicode="g" horiz-adv-x="1234" d="M-6 -360l55 141q251 -78 424 -78q77 0 135.5 21t92.5 56.5t52 73t25 80.5l41 228q-207 -185 -416 -185q-62 0 -115.5 20.5t-99.5 63t-73 119t-27 178.5q0 212 62.5 380.5t178 264t263.5 95.5q59 0 114 -15.5t102 -44.5t78 -53.5t68 -58.5l27 149h168l-199 -1138 q-19 -108 -61.5 -183t-105.5 -116t-135.5 -58.5t-166.5 -17.5q-227 0 -487 78zM262 377q0 -120 49 -189t140 -69q104 0 196.5 53.5t198.5 149.5l84 464q-155 170 -307 170q-109 0 -193 -85.5t-126 -215.5t-42 -278z" />
<glyph unicode="h" horiz-adv-x="1232" d="M57 0l265 1493h170l-101 -561q93 62 214 114t235 52q160 0 224 -95q44 -66 45 -160q0 -43 -9 -91l-131 -752h-170l129 735q8 41 8 74q0 149 -150 149q-97 0 -217.5 -57t-203.5 -119l-138 -782h-170z" />
<glyph unicode="i" horiz-adv-x="501" d="M57 0l191 1075h170l-191 -1075h-170zM276 1288l35 199h187l-33 -199h-189z" />
<glyph unicode="j" horiz-adv-x="501" d="M-240 -301q64 19 107 34t74 33.5t47.5 32.5t29 40.5t17 47t12.5 62.5l201 1126h170l-199 -1116q-25 -136 -46 -184q-36 -78 -126 -126q-83 -44 -248 -85zM276 1288l35 199h189l-35 -199h-189z" />
<glyph unicode="k" horiz-adv-x="1064" d="M57 0l265 1493h170l-170 -963l530 545h207l-443 -438l316 -637h-172l-260 522l-219 -217l-54 -305h-170z" />
<glyph unicode="l" horiz-adv-x="520" d="M66 0l264 1493h170l-264 -1493h-170z" />
<glyph unicode="m" horiz-adv-x="1869" d="M57 0l191 1075h170l-27 -153q84 70 189 123t211 53q122 0 185.5 -56t76.5 -149q33 32 75.5 63.5t99.5 65.5t124 55t129 21q83 0 141 -27t85 -73q27 -48 36 -110q3 -23 4 -47q0 -41 -10 -85l-131 -756h-172l133 735q7 39 7 72q0 151 -142 151q-92 0 -197.5 -61 t-187.5 -137l-134 -760h-170l134 735q7 38 7 71q0 52 -18 90q-30 62 -127 62q-89 0 -190 -57.5t-187 -134.5l-135 -766h-170z" />
<glyph unicode="n" horiz-adv-x="1232" d="M57 0l191 1075h170l-27 -143q93 62 214 114t235 52q160 0 224 -95q44 -66 45 -160q0 -43 -9 -91l-131 -752h-170l129 735q8 41 8 74q0 149 -150 149q-97 0 -217.5 -57t-203.5 -119l-138 -782h-170z" />
<glyph unicode="o" horiz-adv-x="1241" d="M86 444q0 181 67 329.5t194 236.5t292 88q230 0 357.5 -124.5t127.5 -342.5q0 -181 -67.5 -329.5t-195 -236.5t-292.5 -88q-230 0 -356.5 123.5t-126.5 343.5zM256 444q0 -151 75.5 -240t235.5 -89q71 0 133 28.5t107.5 78t78.5 114.5t49.5 140.5t16.5 154.5 q0 152 -75 241t-236 89q-88 0 -162 -44t-122 -116.5t-74.5 -165t-26.5 -191.5z" />
<glyph unicode="p" horiz-adv-x="1230" d="M-16 -418l264 1493h170l-25 -137q200 160 383 160q68 0 127 -20.5t109.5 -63.5t80 -119.5t29.5 -179.5q0 -212 -60.5 -379.5t-173 -263t-257.5 -95.5q-62 0 -120 15.5t-106.5 44t-80.5 52.5t-70 58l-100 -565h-170zM279 289q155 -170 321 -170q105 0 185.5 85t120.5 215 t40 279q0 124 -54 191t-161 67q-94 0 -178.5 -45.5t-187.5 -128.5z" />
<glyph unicode="q" horiz-adv-x="1236" d="M88 358q0 212 63 380.5t179 264t264 95.5q59 0 114 -16t103 -45.5t79 -53.5t68 -59l27 151h170l-264 -1493h-170l102 584q-207 -189 -417 -189q-49 0 -93.5 12t-86 41t-71.5 71.5t-48.5 108.5t-18.5 148zM264 377q0 -121 48.5 -189.5t140.5 -68.5q73 0 149 32t128.5 71.5 t121.5 101.5l82 460q-157 172 -309 172q-109 0 -193 -85.5t-126 -215.5t-42 -278z" />
<glyph unicode="r" horiz-adv-x="788" d="M57 0l191 1075h170l-43 -229q13 20 29 42t58.5 63.5t89 71t119.5 49.5q56 16 117 16q18 0 35 -1l-28 -161q-71 0 -134.5 -19t-109 -50t-84 -68t-62.5 -74t-41.5 -68t-24.5 -50l-7 -19l-105 -578h-170z" />
<glyph unicode="s" horiz-adv-x="1048" d="M6 123l90 115q216 -123 381 -123q104 0 178 47t74 127q0 51 -38 87.5t-76 52t-126 43.5q-23 7 -34 11q-45 14 -75 25.5t-70.5 30t-66.5 40.5t-51 51t-37 68t-12 86q0 144 115 229t289 85q116 0 231.5 -36.5t196.5 -84.5l-84 -115q-182 99 -338 99q-102 0 -170 -45 t-68 -119q0 -21 6.5 -39.5t14.5 -31.5t27 -26.5t31.5 -21.5t40 -18.5t41 -15.5t47.5 -15.5t46 -14.5q67 -23 111 -40.5t90.5 -44.5t72.5 -57t43 -73t17 -96q0 -153 -121 -239.5t-305 -86.5q-130 0 -254 43.5t-217 102.5z" />
<glyph unicode="t" horiz-adv-x="765" d="M121 944l24 131h146l49 271l176 40l-55 -311h293l-23 -131h-295l-125 -704q-4 -21 -3 -38q0 -33 14 -50q22 -25 67 -25q63 0 211 55l45 -135q-58 -23 -145.5 -46.5t-149.5 -23.5q-110 0 -170 69q-41 47 -41 133q0 39 8 85l121 680h-147z" />
<glyph unicode="u" horiz-adv-x="1230" d="M106 322l132 753h170l-132 -735q-8 -41 -8 -74q0 -149 150 -149q99 0 222.5 57.5t199.5 118.5l139 782h170l-191 -1075h-170l25 143q-94 -63 -213 -114.5t-233 -51.5q-160 1 -225 95q-45 65 -45 160q0 42 9 90z" />
<glyph unicode="v" horiz-adv-x="1126" d="M131 1075h176l166 -903l485 903h195l-618 -1075h-170z" />
<glyph unicode="w" horiz-adv-x="1650" d="M143 1075h174l89 -895l419 895h156l94 -895l404 895h186l-524 -1075h-168l-101 866l-417 -866h-168z" />
<glyph unicode="x" horiz-adv-x="1165" d="M-70 0l539 539l-326 536h185l245 -438l398 438h219l-520 -536l352 -539h-188l-263 444l-413 -444h-228z" />
<glyph unicode="y" horiz-adv-x="1130" d="M-20 -295q168 54 241 107.5t148 183.5l-236 1079h176l172 -876l484 876h190l-612 -1075q-92 -159 -131 -210q-78 -100 -198 -157q-77 -37 -194 -69z" />
<glyph unicode="z" horiz-adv-x="1040" d="M-23 0l23 131l780 801h-616l24 143h840l-20 -131l-781 -801h635l-24 -143h-861z" />
<glyph unicode="{" horiz-adv-x="798" d="M63 639l25 145q54 0 97.5 17t69.5 43t43.5 60.5t24 66.5t7.5 65l8 195q8 242 135 364.5t399 122.5h58l-21 -116h-37q-95 0 -164 -27t-107.5 -76.5t-57 -106.5t-23.5 -130l-8 -195q-7 -161 -76 -246t-205 -112q248 -66 158 -359l-53 -172q-15 -50 -22.5 -89t-9 -82 t12.5 -74t41 -57t77.5 -39t121.5 -13h37l-19 -117h-38q-254 0 -352.5 130t-26.5 364l57 188q41 135 0 192.5t-152 57.5z" />
<glyph unicode="|" horiz-adv-x="497" d="M27 -252l340 1927h135l-340 -1927h-135z" />
<glyph unicode="}" horiz-adv-x="798" d="M-94 -293l20 117h37q77 0 136.5 18t98 48.5t64 75t37 92t14.5 104.5l9 196q7 162 77 247t209 110q-252 63 -162 360l52 172q19 61 27 107t2.5 95t-30.5 80.5t-79.5 52t-138.5 20.5h-39l20 116h37q255 0 353 -129.5t26 -365.5l-58 -187q-41 -135 1 -193.5t155 -58.5 l-26 -145q-54 1 -97.5 -15.5t-69.5 -42.5t-43.5 -60.5t-25 -66.5t-8.5 -65l-6 -196q-9 -241 -136 -363.5t-399 -122.5h-57z" />
<glyph unicode="~" d="M47 469q153 240 348 240q56 0 110.5 -15.5t97.5 -38t84 -45t87 -38t90 -15.5q53 0 103.5 30t109.5 113l117 -51q-152 -241 -348 -241q-69 0 -137.5 24t-114.5 52.5t-105.5 52.5t-113.5 24q-51 0 -100.5 -30t-108.5 -113z" />
<glyph unicode="&#xa1;" horiz-adv-x="544" d="M61 0l226 1006h108l-129 -1006h-205zM276 1196l41 238h197l-41 -238h-197z" />
<glyph unicode="&#xa2;" horiz-adv-x="1144" d="M137 606q0 158 47.5 288.5t125 212.5t172.5 126.5t194 44.5h4l29 156h133l-31 -174q32 -8 66 -21.5t58 -24.5t56.5 -30t46 -27.5t45 -29.5t35.5 -23l-88 -115q-2 2 -18.5 13t-24.5 16.5t-26.5 17.5t-31 19.5t-32 18t-36 17.5t-36.5 14.5t-39 12.5l-141 -801 q26 7 55.5 17.5t51 19.5t51.5 24t42.5 21t40.5 21t29 16l68 -131l-26 -13t-30.5 -15t-30.5 -15t-35.5 -17t-36 -15.5t-39.5 -16t-39 -14t-43 -13.5t-41.5 -10.5t-43.5 -9.5l-28 -166h-133l26 160q-157 12 -251.5 129t-94.5 317zM313 621q0 -136 50 -217.5t147 -96.5l143 817 q-141 -25 -240.5 -167t-99.5 -336z" />
<glyph unicode="&#xa3;" horiz-adv-x="1136" d="M20 0l21 125q11 7 29.5 19.5t68 54t90 86t80 111.5t53.5 134h-225l21 119h209q-7 59 -59 189.5t-52 220.5q0 178 121 287.5t321 109.5q72 0 138.5 -14t130 -44t96.5 -49t90 -55l-96 -110q-202 121 -340 121q-130 0 -208.5 -75.5t-78.5 -180.5q0 -66 25 -131.5t52.5 -134 t31.5 -134.5h335l-20 -119h-324q-43 -200 -258 -378h648l-23 -152h-877z" />
<glyph unicode="&#xa5;" horiz-adv-x="1357" d="M150 344l20 117h391l21 110l-17 37h-368l18 117h301l-301 709h186l285 -727l535 727h209l-549 -709h299l-21 -117h-368l-35 -45l-19 -102h398l-23 -117h-395l-60 -344h-176l60 344h-391z" />
<glyph unicode="&#xa6;" horiz-adv-x="501" d="M31 -252l149 846h135l-149 -846h-135zM221 829l150 846h135l-150 -846h-135z" />
<glyph unicode="&#xa7;" horiz-adv-x="1128" d="M53 -27l84 115q184 -98 342 -98q102 0 169 44.5t67 119.5q0 17 -4 32t-9.5 26.5t-17.5 23t-20.5 19.5t-27.5 17.5t-29.5 14.5t-34 13t-35 12t-38.5 12.5t-38 11.5q-81 26 -138 51.5t-104.5 61.5t-70.5 83.5t-23 108.5q0 105 69 177t187 102q-127 77 -127 221 q0 145 114.5 230t288.5 85q117 0 233 -36.5t197 -84.5l-83 -114q-180 98 -338 98q-103 0 -171.5 -45t-68.5 -119q0 -18 4 -34t14 -30t19 -24t28 -21t30.5 -17.5t37 -15.5t37.5 -13t42.5 -13.5t41.5 -13.5q79 -26 133.5 -50.5t103.5 -60t73 -84t24 -110.5q0 -106 -68.5 -177 t-185.5 -102q127 -81 127 -223q0 -96 -55 -168t-146 -108.5t-203 -36.5q-117 0 -232 36t-198 84zM293 666q0 -31 14 -57.5t32.5 -43.5t53 -33.5t58 -24.5t65.5 -21t59 -19l23 -8q109 9 178.5 59t69.5 127q0 67 -63 110t-218 87l-22 6q-111 -8 -180.5 -58t-69.5 -124z" />
<glyph unicode="&#xa8;" horiz-adv-x="485" d="M201 1247l35 195h172l-33 -195h-174zM549 1247l35 195h170l-35 -195h-170z" />
<glyph unicode="&#xa9;" horiz-adv-x="1710" d="M143 641q0 131 32.5 251.5t98.5 223t158.5 178.5t219 119t274.5 43q206 0 360.5 -84.5t235 -234.5t80.5 -344q0 -131 -32.5 -251.5t-98.5 -223.5t-158.5 -179t-220 -119t-275.5 -43q-309 0 -491.5 184t-182.5 480zM223 643q0 -171 70 -303t208 -208.5t324 -76.5 q160 0 293 58.5t220.5 159t135.5 234t48 284.5q0 127 -41 235t-117 186t-190 122t-254 44q-160 0 -293 -58.5t-220.5 -159t-135.5 -233.5t-48 -284zM494 618q-5 127 26.5 231t89.5 171.5t134.5 104t162.5 36.5q54 0 104.5 -12.5t94.5 -37t69.5 -42.5t59.5 -45l-66 -68 q-27 23 -46.5 37t-55 35t-76.5 32t-86 11q-135 0 -224.5 -126.5t-82.5 -317.5q5 -124 55.5 -194.5t137.5 -70.5q145 0 305 111l53 -76q-53 -35 -95 -58t-115 -46t-144 -23q-126 0 -210.5 91.5t-90.5 256.5z" />
<glyph unicode="&#xaa;" horiz-adv-x="894" d="M195 1012q0 191 88 313.5t227 122.5q48 0 95.5 -18.5t73 -36t58.5 -45.5l17 86h129l-113 -646h-131l16 93q-134 -107 -256 -107q-86 0 -145 58t-59 180zM328 1024q0 -68 28.5 -106.5t81.5 -38.5q64 0 120.5 30.5t115.5 83.5l45 254q-90 94 -180 94q-95 0 -153 -95 t-58 -222z" />
<glyph unicode="&#xab;" horiz-adv-x="1396" d="M57 516l19 111l698 454l-31 -184l-526 -340l406 -336l-27 -158zM633 516l18 111l701 454l-33 -184l-528 -342l405 -334l-25 -158z" />
<glyph unicode="&#xac;" d="M39 614l24 136h1170l-100 -566h-150l76 430h-1020z" />
<glyph unicode="&#xad;" horiz-adv-x="886" d="M137 510l25 147h577l-24 -147h-578z" />
<glyph unicode="&#xae;" horiz-adv-x="1048" d="M190 983q0 122 49 223t149.5 164.5t236.5 63.5q171 0 271.5 -102t100.5 -267q0 -122 -48.5 -223t-148.5 -164.5t-235 -63.5q-173 0 -274 102t-101 267zM260 985q0 -134 82.5 -218.5t226.5 -84.5q165 0 264 109.5t99 271.5q0 133 -84.5 218t-229.5 85q-165 0 -261.5 -109 t-96.5 -272zM410 823l71 412h183q57 0 90.5 -30.5t33.5 -76.5q0 -50 -35 -85t-91 -44l67 -176h-70l-63 174h-88l-31 -174h-67zM518 1061h107q46 0 71 19t25 48q0 46 -59 46h-123z" />
<glyph unicode="&#xaf;" horiz-adv-x="604" d="M233 1278l19 113h594l-19 -113h-594z" />
<glyph unicode="&#xb0;" horiz-adv-x="897" d="M188 1094q0 140 100.5 240t241.5 100t241.5 -100t100.5 -240q0 -141 -100.5 -241.5t-241.5 -100.5t-241.5 100.5t-100.5 241.5zM301 1094q0 -95 67 -162.5t162 -67.5t162.5 67.5t67.5 162.5q0 94 -67.5 161.5t-162.5 67.5t-162 -67.5t-67 -161.5z" />
<glyph unicode="&#xb1;" d="M10 0l21 123h1020l-21 -123h-1020zM119 618l24 136h437l59 331h139l-59 -331h442l-20 -136h-445l-57 -331h-141l57 331h-436z" />
<glyph unicode="&#xb2;" horiz-adv-x="800" d="M111 788l12 74q9 54 31 99.5t51 78.5t69.5 63.5t80 54.5t90.5 52q16 8 24 13q141 82 181 115q68 56 67 114q-3 44 -40.5 71t-103.5 27q-119 0 -249 -80l-54 97q162 96 316 96q124 0 195 -58t71 -153q0 -57 -25.5 -105.5t-85.5 -94.5t-101.5 -71t-126.5 -71 q-17 -9 -26 -14q-102 -56 -144.5 -95.5t-55.5 -99.5h467l-19 -113h-624z" />
<glyph unicode="&#xb3;" horiz-adv-x="802" d="M104 881l68 88q40 -23 68.5 -37t82.5 -29.5t107 -15.5q100 0 161.5 45.5t61.5 114.5q0 76 -70.5 112.5t-176.5 36.5h-37l14 115h47q99 0 178.5 41.5t79.5 103.5q0 44 -37 69t-98 25q-109 0 -238 -71l-47 94q109 59 197 78q55 12 108 12q118 0 185 -52.5t67 -131.5 q0 -69 -52.5 -128.5t-154.5 -93.5q73 -20 123 -78t50 -135q0 -110 -90 -190t-261 -80t-336 107z" />
<glyph unicode="&#xb4;" horiz-adv-x="452" d="M201 1227l284 266h248l-381 -266h-151z" />
<glyph unicode="&#xb5;" horiz-adv-x="1234" d="M-2 -418l264 1493h168l-129 -735q-41 -223 141 -223q99 0 221 57t199 119l139 782h170l-190 -1075h-170l25 143q-90 -62 -211 -114t-236 -52q-84 0 -147 29l-76 -424h-168z" />
<glyph unicode="&#xb6;" horiz-adv-x="1306" d="M135 918q0 120 43.5 218t121 163t184 100t233.5 35h157l-319 -1813h-154l168 930q-203 0 -318.5 94t-115.5 273zM782 -381l320 1815h149l-319 -1815h-150z" />
<glyph unicode="&#xb7;" horiz-adv-x="507" d="M127 459l43 248h197l-41 -248h-199z" />
<glyph unicode="&#xb8;" horiz-adv-x="350" d="M-61 -313l57 98q51 -25 106 -25q52 0 88.5 27.5t36.5 85.5q0 28 -8 61t-16 52l-8 18h81q6 -8 15.5 -22.5t25 -57t15.5 -82.5q0 -90 -61.5 -142t-166.5 -52q-94 0 -165 39z" />
<glyph unicode="&#xb9;" horiz-adv-x="499" d="M180 1530l246 119h125l-152 -861h-137l131 723l-168 -77z" />
<glyph unicode="&#xba;" horiz-adv-x="884" d="M190 1055q0 166 99 279.5t262 113.5q146 0 227.5 -75t81.5 -206q0 -167 -98 -280t-262 -113q-146 0 -228 75t-82 206zM319 1059q0 -84 44 -133t139 -49q106 0 167.5 86.5t61.5 199.5q0 84 -43.5 133.5t-138.5 49.5q-104 0 -167 -87.5t-63 -199.5z" />
<glyph unicode="&#xbb;" horiz-adv-x="1394" d="M29 63l32 185l529 340l-408 336l27 157l536 -454l-16 -111zM604 63l33 185l524 340l-403 336l24 157l539 -454l-18 -111z" />
<glyph unicode="&#xbc;" horiz-adv-x="1658" d="M184 1315l246 119h123l-152 -861h-137l133 723l-168 -77zM219 0l928 1434h147l-929 -1434h-146zM762 182l14 97l529 581h176l-103 -567h138l-17 -111h-139l-33 -182h-135l33 182h-463zM930 293h313l80 444z" />
<glyph unicode="&#xbd;" horiz-adv-x="1718" d="M184 1315l246 119h123l-152 -861h-137l133 723l-168 -77zM219 0l928 1434h147l-929 -1434h-146zM874 0l13 74q11 66 37 117t79.5 95.5t87.5 66t114 66.5q8 5 14 8.5t12 6.5q38 22 51.5 30t45 27t44 28t35 25.5t31.5 28t21 26.5t16 30t4 30q0 47 -38.5 75t-107.5 28 q-118 0 -248 -80l-53 96q162 96 314 96q126 0 197 -57.5t71 -152.5q0 -46 -22.5 -89.5t-45.5 -72t-82.5 -69t-85 -55t-100.5 -55.5l-10.5 -6t-9 -5t-9.5 -5q-104 -56 -146.5 -95t-53.5 -99h467l-19 -113h-623z" />
<glyph unicode="&#xbe;" horiz-adv-x="1896" d="M96 666l68 88q40 -23 68.5 -37t82.5 -29.5t107 -15.5q100 0 161.5 45t61.5 114q0 76 -71 113t-177 37h-37l15 115h47q99 0 178.5 41.5t79.5 103.5q0 44 -36.5 69t-98.5 25q-109 0 -238 -71l-47 94q109 59 197 78q55 12 108 12q118 0 185 -52.5t67 -131.5 q0 -69 -52.5 -128.5t-154.5 -93.5q73 -19 122.5 -77.5t49.5 -135.5q0 -110 -89.5 -190t-260.5 -80t-336 107zM459 0l930 1434h145l-928 -1434h-147zM1001 182l15 97l526 581h178l-102 -567h139l-18 -111h-140l-32 -182h-135l32 182h-463zM1169 293h314l80 442z" />
<glyph unicode="&#xbf;" horiz-adv-x="1038" d="M41 291q0 92 42.5 169t117.5 130.5t164.5 90.5t197.5 60l60 265h122l-49 -365q-479 -101 -479 -332q0 -91 63.5 -135.5t165.5 -44.5q91 0 177 32t194 91l68 -129q-238 -146 -461 -146q-105 0 -189.5 32t-139 105t-54.5 177zM618 1196l41 238h197l-39 -238h-199z" />
<glyph unicode="&#xc0;" horiz-adv-x="1392" d="M-53 0l801 1434h194l295 -1434h-184l-64 350h-653l-184 -350h-205zM414 496h549l-140 774zM594 1802h217l209 -266h-131z" />
<glyph unicode="&#xc1;" horiz-adv-x="1392" d="M-53 0l801 1434h194l295 -1434h-184l-64 350h-653l-184 -350h-205zM414 496h549l-140 774zM707 1536l284 266h248l-381 -266h-151z" />
<glyph unicode="&#xc2;" horiz-adv-x="1392" d="M-53 0l801 1434h194l295 -1434h-184l-64 350h-653l-184 -350h-205zM414 496h549l-140 774zM565 1536l246 266h199l155 -266h-118l-144 174l-205 -174h-133z" />
<glyph unicode="&#xc3;" horiz-adv-x="1392" d="M-53 0l801 1434h194l295 -1434h-184l-64 350h-653l-184 -350h-205zM414 496h549l-140 774zM563 1610q59 85 101 121t104 36q45 0 89.5 -25t82.5 -50t66 -25q25 0 50.5 19t67.5 77l84 -55q-58 -85 -100 -121.5t-102 -36.5q-36 0 -72.5 16t-61 34.5t-54 34.5t-52.5 16 q-25 0 -50.5 -18.5t-66.5 -76.5z" />
<glyph unicode="&#xc4;" horiz-adv-x="1392" d="M-53 0l801 1434h194l295 -1434h-184l-64 350h-653l-184 -350h-205zM414 496h549l-140 774zM606 1556l35 195h172l-33 -195h-174zM954 1556l35 195h170l-33 -195h-172z" />
<glyph unicode="&#xc5;" horiz-adv-x="1392" d="M-53 0l801 1434h194l295 -1434h-184l-64 350h-653l-184 -350h-205zM414 496h549l-140 774zM686 1726q0 89 61.5 152.5t149.5 63.5q89 0 152 -63.5t63 -152.5q0 -88 -63 -149t-152 -61q-88 0 -149.5 61t-61.5 149zM782 1726q0 -47 34 -80.5t81 -33.5q49 0 83 33.5t34 80.5 q0 50 -34 83.5t-83 33.5q-48 0 -81.5 -34t-33.5 -83z" />
<glyph unicode="&#xc6;" horiz-adv-x="2043" d="M-127 0l1231 1434h960l-24 -154h-727l-86 -487h600l-29 -152h-598l-88 -487h737l-24 -154h-914l62 350h-576l-293 -350h-231zM522 500h477l127 723z" />
<glyph unicode="&#xc7;" horiz-adv-x="1329" d="M137 559q0 203 56.5 374t152 284t222 176t266.5 63q54 0 104.5 -8t100.5 -27.5t86 -35.5t86 -48.5t73 -48.5t74 -53l-105 -123q-124 95 -215.5 139.5t-189.5 44.5q-145 0 -266 -94t-192 -262t-71 -373q0 -217 80.5 -323.5t214.5 -106.5q186 0 476 182l84 -137 q-143 -84 -270.5 -136.5t-254.5 -63.5q41 -74 41 -140q0 -90 -62 -142t-167 -52q-96 0 -164 39l55 98q51 -25 107 -25q53 0 90 27.5t37 85.5q0 47 -23 104q-93 4 -169 39t-134.5 103t-90.5 180t-32 260z" />
<glyph unicode="&#xc8;" horiz-adv-x="1222" d="M90 0l252 1434h901l-24 -154h-727l-86 -487h598l-27 -152h-598l-88 -487h737l-24 -154h-914zM545 1802h219l211 -266h-133z" />
<glyph unicode="&#xc9;" horiz-adv-x="1222" d="M90 0l252 1434h901l-24 -154h-727l-86 -487h598l-27 -152h-598l-88 -487h737l-24 -154h-914zM655 1536l285 266h246l-379 -266h-152z" />
<glyph unicode="&#xca;" horiz-adv-x="1222" d="M90 0l252 1434h901l-24 -154h-727l-86 -487h598l-27 -152h-598l-88 -487h737l-24 -154h-914zM516 1536l250 266h195l155 -266h-115l-147 174l-203 -174h-135z" />
<glyph unicode="&#xcb;" horiz-adv-x="1222" d="M90 0l252 1434h901l-24 -154h-727l-86 -487h598l-27 -152h-598l-88 -487h737l-24 -154h-914zM561 1556l35 195h174l-35 -195h-174zM909 1556l35 195h172l-35 -195h-172z" />
<glyph unicode="&#xcc;" horiz-adv-x="571" d="M90 0l252 1434h176l-252 -1434h-176zM178 1802h219l211 -266h-133z" />
<glyph unicode="&#xcd;" horiz-adv-x="571" d="M90 0l252 1434h176l-252 -1434h-176zM287 1536l284 266h248l-381 -266h-151z" />
<glyph unicode="&#xce;" horiz-adv-x="571" d="M90 0l252 1434h176l-252 -1434h-176zM150 1536l247 266h197l156 -266h-119l-144 174l-202 -174h-135z" />
<glyph unicode="&#xcf;" horiz-adv-x="571" d="M90 0l252 1434h176l-252 -1434h-176zM195 1556l32 195h172l-34 -195h-170zM541 1556l34 195h170l-32 -195h-172z" />
<glyph unicode="&#xd0;" horiz-adv-x="1454" d="M66 643l24 148h150l114 643h377q298 0 462.5 -138.5t164.5 -402.5q0 -144 -33.5 -276t-101.5 -244.5t-164 -195.5t-229.5 -130t-290.5 -47h-437l113 643h-149zM305 154h209q299 0 481.5 200.5t182.5 536.5q0 206 -123 297.5t-355 91.5h-196l-88 -489h344l-25 -148h-344z " />
<glyph unicode="&#xd1;" horiz-adv-x="1486" d="M90 0l252 1434h182l527 -1192l209 1192h176l-252 -1434h-183l-526 1190l-209 -1190h-176zM618 1610q59 85 101 121t104 36q36 0 72 -15.5t60.5 -34.5t53.5 -34.5t52 -15.5q25 0 51 19t68 77l84 -55q-58 -84 -100.5 -121t-102.5 -37q-36 0 -72.5 16t-61 34.5t-54 34.5 t-52.5 16q-25 0 -50 -18.5t-66 -76.5z" />
<glyph unicode="&#xd2;" horiz-adv-x="1531" d="M133 584q-1 110 23.5 225.5t80 232.5t136 208t203.5 148.5t270 57.5q154 0 268.5 -45t183.5 -128t102.5 -191t33.5 -242q1 -91 -17 -187t-53 -195t-94 -186.5t-135.5 -156t-183 -108.5t-230.5 -40q-153 0 -268 45.5t-183.5 128.5t-102 191t-34.5 242zM315 584 q0 -453 402 -453q91 0 171 34t137 91.5t102 131t72 155t40.5 159t13.5 148.5q0 453 -401 453q-92 0 -172 -34t-137 -92t-102 -131t-72 -154.5t-40.5 -159t-13.5 -148.5zM659 1802h218l210 -266h-133z" />
<glyph unicode="&#xd3;" horiz-adv-x="1531" d="M133 584q-1 110 23.5 225.5t80 232.5t136 208t203.5 148.5t270 57.5q154 0 268.5 -45t183.5 -128t102.5 -191t33.5 -242q1 -91 -17 -187t-53 -195t-94 -186.5t-135.5 -156t-183 -108.5t-230.5 -40q-153 0 -268 45.5t-183.5 128.5t-102 191t-34.5 242zM315 584 q0 -453 402 -453q91 0 171 34t137 91.5t102 131t72 155t40.5 159t13.5 148.5q0 453 -401 453q-92 0 -172 -34t-137 -92t-102 -131t-72 -154.5t-40.5 -159t-13.5 -148.5zM766 1536l285 266h247l-378 -266h-154z" />
<glyph unicode="&#xd4;" horiz-adv-x="1531" d="M133 584q-1 110 23.5 225.5t80 232.5t136 208t203.5 148.5t270 57.5q154 0 268.5 -45t183.5 -128t102.5 -191t33.5 -242q1 -91 -17 -187t-53 -195t-94 -186.5t-135.5 -156t-183 -108.5t-230.5 -40q-153 0 -268 45.5t-183.5 128.5t-102 191t-34.5 242zM315 584 q0 -453 402 -453q91 0 171 34t137 91.5t102 131t72 155t40.5 159t13.5 148.5q0 453 -401 453q-92 0 -172 -34t-137 -92t-102 -131t-72 -154.5t-40.5 -159t-13.5 -148.5zM631 1536l246 266h198l156 -266h-117l-145 174l-203 -174h-135z" />
<glyph unicode="&#xd5;" horiz-adv-x="1531" d="M133 584q-1 110 23.5 225.5t80 232.5t136 208t203.5 148.5t270 57.5q154 0 268.5 -45t183.5 -128t102.5 -191t33.5 -242q1 -91 -17 -187t-53 -195t-94 -186.5t-135.5 -156t-183 -108.5t-230.5 -40q-153 0 -268 45.5t-183.5 128.5t-102 191t-34.5 242zM315 584 q0 -453 402 -453q91 0 171 34t137 91.5t102 131t72 155t40.5 159t13.5 148.5q0 453 -401 453q-92 0 -172 -34t-137 -92t-102 -131t-72 -154.5t-40.5 -159t-13.5 -148.5zM627 1610q57 84 99 120.5t103 36.5q45 0 90 -25t83.5 -50t66.5 -25q25 0 50.5 19t66.5 77l86 -55 q-31 -44 -49 -66.5t-44 -47t-52.5 -34.5t-59.5 -10q-36 0 -72 16t-60.5 34.5t-53.5 34.5t-52 16q-25 0 -50.5 -18.5t-67.5 -76.5z" />
<glyph unicode="&#xd6;" horiz-adv-x="1531" d="M133 584q-1 110 23.5 225.5t80 232.5t136 208t203.5 148.5t270 57.5q154 0 268.5 -45t183.5 -128t102.5 -191t33.5 -242q1 -91 -17 -187t-53 -195t-94 -186.5t-135.5 -156t-183 -108.5t-230.5 -40q-153 0 -268 45.5t-183.5 128.5t-102 191t-34.5 242zM315 584 q0 -453 402 -453q91 0 171 34t137 91.5t102 131t72 155t40.5 159t13.5 148.5q0 453 -401 453q-92 0 -172 -34t-137 -92t-102 -131t-72 -154.5t-40.5 -159t-13.5 -148.5zM674 1556l33 195h172l-35 -195h-170zM1020 1556l33 195h172l-35 -195h-170z" />
<glyph unicode="&#xd7;" d="M180 412l357 280l-256 279l108 90l258 -283l365 285l90 -102l-361 -283l256 -279l-108 -88l-258 279l-361 -283z" />
<glyph unicode="&#xd8;" horiz-adv-x="1529" d="M51 0l180 197q-100 149 -100 387q-1 110 23.5 225.5t80 232.5t136 208t203.5 148.5t270 57.5q262 0 413 -135l103 113h149l-180 -197q100 -148 103 -387q0 -77 -12 -159t-39.5 -168t-67 -164.5t-98.5 -148.5t-130.5 -121.5t-166 -81.5t-201.5 -30q-265 0 -414 136 l-102 -113h-150zM313 584q0 -151 43 -250l787 862q-104 107 -293 107q-92 0 -172 -34t-137 -92t-102 -131t-72 -154.5t-40.5 -159t-13.5 -148.5zM418 238q104 -107 295 -107q92 0 172 34t137 92t101.5 130.5t71.5 154.5t40.5 159.5t13.5 148.5q0 152 -45 250z" />
<glyph unicode="&#xd9;" horiz-adv-x="1435" d="M155 358q1 85 15 181l156 895h180l-164 -916q-10 -57 -13 -103.5t3 -92t25.5 -79t52 -59.5t84.5 -39.5t122 -13.5q372 0 439 387l164 916h176l-164 -926q-93 -531 -615 -531q-123 0 -213 28t-141.5 78t-79.5 120t-27 155zM610 1802h219l209 -266h-131z" />
<glyph unicode="&#xda;" horiz-adv-x="1435" d="M155 358q1 85 15 181l156 895h180l-164 -916q-10 -57 -13 -103.5t3 -92t25.5 -79t52 -59.5t84.5 -39.5t122 -13.5q372 0 439 387l164 916h176l-164 -926q-93 -531 -615 -531q-123 0 -213 28t-141.5 78t-79.5 120t-27 155zM717 1536l287 266h245l-379 -266h-153z" />
<glyph unicode="&#xdb;" horiz-adv-x="1435" d="M155 358q1 85 15 181l156 895h180l-164 -916q-10 -57 -13 -103.5t3 -92t25.5 -79t52 -59.5t84.5 -39.5t122 -13.5q372 0 439 387l164 916h176l-164 -926q-93 -531 -615 -531q-123 0 -213 28t-141.5 78t-79.5 120t-27 155zM582 1536l245 266h199l156 -266h-119l-143 174 l-203 -174h-135z" />
<glyph unicode="&#xdc;" horiz-adv-x="1435" d="M155 358q1 85 15 181l156 895h180l-164 -916q-10 -57 -13 -103.5t3 -92t25.5 -79t52 -59.5t84.5 -39.5t122 -13.5q372 0 439 387l164 916h176l-164 -926q-93 -531 -615 -531q-123 0 -213 28t-141.5 78t-79.5 120t-27 155zM625 1556l34 195h172l-32 -195h-174zM973 1556 l35 195h168l-33 -195h-170z" />
<glyph unicode="&#xdd;" horiz-adv-x="1288" d="M174 1434h186l283 -727l537 727h209l-672 -869l-99 -565h-178l101 569zM639 1536l285 266h247l-380 -266h-152z" />
<glyph unicode="&#xde;" horiz-adv-x="1341" d="M90 0l252 1434h178l-45 -256h307q227 0 358.5 -93t131.5 -288q0 -230 -161 -363t-429 -133h-360l-54 -301h-178zM346 451h324q88 0 163 21t133 62t91 108t33 153q0 62 -23 107.5t-65 72t-96 39t-122 12.5h-333z" />
<glyph unicode="&#xdf;" horiz-adv-x="1320" d="M57 0l179 1014q23 127 73 215t126.5 137t165.5 69.5t206 20.5q89 0 162 -15.5t134.5 -49t97 -87.5t50 -130.5t-7.5 -178.5l-4 -22l-113 -92q-133 80 -254 80q-90 0 -150 -48t-60 -122q0 -18 3.5 -33.5t12.5 -29t16.5 -24t24 -20.5t26.5 -16.5t32.5 -15.5t33 -13.5 t37.5 -13.5t37 -13q146 -54 217.5 -122.5t71.5 -184.5q0 -104 -57.5 -180.5t-144.5 -112t-190 -35.5q-116 0 -228.5 44.5t-193.5 103.5l86 117q65 -50 159.5 -88.5t168.5 -38.5q86 0 155.5 49.5t69.5 126.5q0 26 -8 48.5t-26.5 40.5t-35 31t-48.5 27t-50 21.5t-55 20.5 q-3 1 -5 1.5t-4.5 1.5t-4.5 2q-47 17 -78 31t-71 39.5t-63.5 53.5t-40.5 71.5t-17 95.5q0 142 104.5 232t267.5 90q105 0 219 -43q13 143 -59.5 203.5t-226.5 60.5q-76 0 -135.5 -14.5t-114 -49.5t-92 -101.5t-54.5 -162.5l-176 -991h-168z" />
<glyph unicode="&#xe0;" horiz-adv-x="1236" d="M88 358q0 212 63 380.5t179 264t264 95.5q58 0 113 -16t102.5 -45.5t78.5 -54t68 -58.5l27 151h170l-190 -1075h-170l28 162q-211 -185 -415 -185q-62 0 -116.5 20.5t-101 63t-73.5 119t-27 178.5zM262 377q0 -121 49.5 -189.5t141.5 -68.5q104 0 196.5 53.5t198.5 149.5 l84 464q-155 170 -307 170q-110 0 -194.5 -85.5t-126.5 -215.5t-42 -278zM471 1493h219l211 -266h-131z" />
<glyph unicode="&#xe1;" horiz-adv-x="1236" d="M88 358q0 212 63 380.5t179 264t264 95.5q58 0 113 -16t102.5 -45.5t78.5 -54t68 -58.5l27 151h170l-190 -1075h-170l28 162q-211 -185 -415 -185q-62 0 -116.5 20.5t-101 63t-73.5 119t-27 178.5zM262 377q0 -121 49.5 -189.5t141.5 -68.5q104 0 196.5 53.5t198.5 149.5 l84 464q-155 170 -307 170q-110 0 -194.5 -85.5t-126.5 -215.5t-42 -278zM547 1227l284 266h244l-377 -266h-151z" />
<glyph unicode="&#xe2;" horiz-adv-x="1236" d="M88 358q0 212 63 380.5t179 264t264 95.5q58 0 113 -16t102.5 -45.5t78.5 -54t68 -58.5l27 151h170l-190 -1075h-170l28 162q-211 -185 -415 -185q-62 0 -116.5 20.5t-101 63t-73.5 119t-27 178.5zM262 377q0 -121 49.5 -189.5t141.5 -68.5q104 0 196.5 53.5t198.5 149.5 l84 464q-155 170 -307 170q-110 0 -194.5 -85.5t-126.5 -215.5t-42 -278zM442 1227l248 266h197l155 -266h-116l-146 174l-200 -174h-138z" />
<glyph unicode="&#xe3;" horiz-adv-x="1236" d="M88 358q0 212 63 380.5t179 264t264 95.5q58 0 113 -16t102.5 -45.5t78.5 -54t68 -58.5l27 151h170l-190 -1075h-170l28 162q-211 -185 -415 -185q-62 0 -116.5 20.5t-101 63t-73.5 119t-27 178.5zM262 377q0 -121 49.5 -189.5t141.5 -68.5q104 0 196.5 53.5t198.5 149.5 l84 464q-155 170 -307 170q-110 0 -194.5 -85.5t-126.5 -215.5t-42 -278zM444 1300q57 84 99.5 121t103.5 37q45 0 90 -25t83.5 -50t66.5 -25q25 0 51 19t68 77l84 -55q-58 -84 -100.5 -121t-102.5 -37q-45 0 -90 25t-83.5 50t-66.5 25q-25 0 -51 -18t-68 -76z" />
<glyph unicode="&#xe4;" horiz-adv-x="1236" d="M88 358q0 212 63 380.5t179 264t264 95.5q58 0 113 -16t102.5 -45.5t78.5 -54t68 -58.5l27 151h170l-190 -1075h-170l28 162q-211 -185 -415 -185q-62 0 -116.5 20.5t-101 63t-73.5 119t-27 178.5zM262 377q0 -121 49.5 -189.5t141.5 -68.5q104 0 196.5 53.5t198.5 149.5 l84 464q-155 170 -307 170q-110 0 -194.5 -85.5t-126.5 -215.5t-42 -278zM492 1247l32 195h174l-32 -195h-174zM840 1247l32 195h170l-32 -195h-170z" />
<glyph unicode="&#xe5;" horiz-adv-x="1236" d="M88 358q0 212 63 380.5t179 264t264 95.5q58 0 113 -16t102.5 -45.5t78.5 -54t68 -58.5l27 151h170l-190 -1075h-170l28 162q-211 -185 -415 -185q-62 0 -116.5 20.5t-101 63t-73.5 119t-27 178.5zM262 377q0 -121 49.5 -189.5t141.5 -68.5q104 0 196.5 53.5t198.5 149.5 l84 464q-155 170 -307 170q-110 0 -194.5 -85.5t-126.5 -215.5t-42 -278zM567 1417q0 89 62 152t151 63q88 0 150.5 -63t62.5 -152q0 -88 -62.5 -149.5t-150.5 -61.5q-89 0 -151 61.5t-62 149.5zM666 1417q0 -48 32.5 -81t81.5 -33q47 0 81 33.5t34 80.5q0 49 -33.5 83 t-81.5 34q-49 0 -81.5 -33.5t-32.5 -83.5z" />
<glyph unicode="&#xe6;" horiz-adv-x="1904" d="M88 358q0 212 63 380.5t179 264t264 95.5q59 0 114 -16t103 -45.5t79 -53.5t68 -59l27 151h170l-10 -55q137 78 303 78q174 0 272.5 -79.5t98.5 -203.5q0 -354 -676 -354h-121v-25q0 -156 63.5 -239.5t188.5 -83.5q27 0 57.5 5t55 10.5t58 18t52.5 20t53 24.5l45 22.5 t44.5 23.5t35.5 19l66 -123q-51 -28 -89.5 -46.5t-109.5 -48t-145.5 -45.5t-145.5 -16q-171 0 -274 97l-12 -74h-168l28 166q-86 -78 -193.5 -133.5t-225.5 -55.5q-49 0 -93.5 12t-86 41t-71.5 71.5t-48.5 108.5t-18.5 148zM264 377q0 -121 48.5 -189.5t140.5 -68.5 q107 0 199.5 54t201.5 153q-8 47 -8 116q0 196 82 351q-152 163 -303 163q-109 0 -193 -85.5t-126 -215.5t-42 -278zM1034 571h121q248 0 373 64t125 176q0 72 -59 114t-152 42q-150 0 -261.5 -112t-146.5 -284z" />
<glyph unicode="&#xe7;" horiz-adv-x="1060" d="M86 426q0 158 47.5 288.5t125 212.5t172.5 126.5t194 44.5q28 0 56.5 -3.5t51.5 -7.5t51.5 -13.5t46 -15.5t45 -19.5t39.5 -19.5t38.5 -22t33 -20t31.5 -21l26 -16l-88 -115l-25.5 17t-35 22.5t-38.5 23t-47.5 24.5t-48.5 19t-54 14.5t-54 4.5q-102 0 -191.5 -66.5 t-144.5 -184.5t-55 -259q0 -150 61.5 -232.5t178.5 -82.5q36 0 76 8.5t83.5 26.5t69 30t67.5 34.5t44 23.5l67 -133q-154 -75 -237 -102q-89 -28 -166 -33q39 -71 39 -138q0 -90 -62 -142t-164 -52q-99 0 -167 39l57 98q49 -25 106 -25q52 0 88.5 27.5t36.5 85.5 q0 49 -24 109q-151 19 -240.5 134.5t-89.5 309.5z" />
<glyph unicode="&#xe8;" horiz-adv-x="1142" d="M86 442q0 188 74.5 337t212 234t315.5 85q175 0 273 -79.5t98 -203.5q0 -354 -676 -354h-123v-25q0 -155 65 -239t189 -84q27 0 57.5 5t55 10.5t58 18t52.5 20t53 24.5l45 22.5t44.5 23.5t35.5 19l66 -123q-287 -156 -489 -156q-187 0 -296.5 118.5t-109.5 346.5z M272 571h125q245 0 369.5 64t124.5 176q0 72 -59 114t-150 42q-152 0 -263.5 -112t-146.5 -284zM449 1493h219l209 -266h-134z" />
<glyph unicode="&#xe9;" horiz-adv-x="1142" d="M86 442q0 188 74.5 337t212 234t315.5 85q175 0 273 -79.5t98 -203.5q0 -354 -676 -354h-123v-25q0 -155 65 -239t189 -84q27 0 57.5 5t55 10.5t58 18t52.5 20t53 24.5l45 22.5t44.5 23.5t35.5 19l66 -123q-287 -156 -489 -156q-187 0 -296.5 118.5t-109.5 346.5z M272 571h125q245 0 369.5 64t124.5 176q0 72 -59 114t-150 42q-152 0 -263.5 -112t-146.5 -284zM557 1227l287 266h243l-376 -266h-154z" />
<glyph unicode="&#xea;" horiz-adv-x="1142" d="M86 442q0 188 74.5 337t212 234t315.5 85q175 0 273 -79.5t98 -203.5q0 -354 -676 -354h-123v-25q0 -155 65 -239t189 -84q27 0 57.5 5t55 10.5t58 18t52.5 20t53 24.5l45 22.5t44.5 23.5t35.5 19l66 -123q-287 -156 -489 -156q-187 0 -296.5 118.5t-109.5 346.5z M272 571h125q245 0 369.5 64t124.5 176q0 72 -59 114t-150 42q-152 0 -263.5 -112t-146.5 -284zM420 1227l246 266h196l156 -266h-117l-143 174l-203 -174h-135z" />
<glyph unicode="&#xeb;" horiz-adv-x="1142" d="M86 442q0 188 74.5 337t212 234t315.5 85q175 0 273 -79.5t98 -203.5q0 -354 -676 -354h-123v-25q0 -155 65 -239t189 -84q27 0 57.5 5t55 10.5t58 18t52.5 20t53 24.5l45 22.5t44.5 23.5t35.5 19l66 -123q-287 -156 -489 -156q-187 0 -296.5 118.5t-109.5 346.5z M272 571h125q245 0 369.5 64t124.5 176q0 72 -59 114t-150 42q-152 0 -263.5 -112t-146.5 -284zM463 1247l35 195h172l-33 -195h-174zM811 1247l35 195h170l-35 -195h-170z" />
<glyph unicode="&#xec;" horiz-adv-x="501" d="M57 0l191 1075h170l-191 -1075h-170zM88 1493h219l211 -266h-131z" />
<glyph unicode="&#xed;" horiz-adv-x="501" d="M57 0l191 1075h170l-191 -1075h-170zM197 1227l284 266h248l-381 -266h-151z" />
<glyph unicode="&#xee;" horiz-adv-x="501" d="M57 0l191 1075h170l-191 -1075h-170zM59 1227l248 266h197l155 -266h-116l-146 174l-202 -174h-136z" />
<glyph unicode="&#xef;" horiz-adv-x="501" d="M57 0l191 1075h170l-191 -1075h-170zM104 1247l35 195h172l-37 -195h-170zM451 1247l34 195h172l-34 -195h-172z" />
<glyph unicode="&#xf0;" horiz-adv-x="1257" d="M80 414q0 117 42 221t114 178.5t173 118t214 43.5q77 0 142.5 -20t104 -48.5t66.5 -57.5t38 -49l11 -20q-7 149 -68 276t-178 189l-139 -102h-184l196 145q-40 6 -80 6q-39 0 -80 -4.5t-62 -9.5l-21 -4l-7 137q79 21 179 21q121 0 219 -37l129 96h182l-203 -150 q134 -88 205.5 -250t71.5 -384q0 -337 -165 -534.5t-441 -197.5q-212 0 -335.5 114.5t-123.5 322.5zM256 408q0 -133 68.5 -213t218.5 -80q84 0 154 27.5t116 72t77.5 102t45.5 116.5t14 118q0 131 -75.5 209t-217.5 78q-95 0 -172.5 -36t-126.5 -97t-75.5 -137.5 t-26.5 -159.5z" />
<glyph unicode="&#xf1;" horiz-adv-x="1232" d="M57 0l191 1075h170l-27 -143q93 62 214 114t235 52q160 0 224.5 -95t35.5 -251l-131 -752h-170l129 735q41 223 -142 223q-97 0 -217.5 -57t-203.5 -119l-138 -782h-170zM428 1300q59 86 101 122t104 36q45 0 89.5 -25t82 -50t65.5 -25q25 0 51 19t68 77l84 -55 q-58 -84 -100.5 -121t-102.5 -37q-45 0 -90 25t-83 50t-66 25q-25 0 -50.5 -18t-66.5 -76z" />
<glyph unicode="&#xf2;" horiz-adv-x="1241" d="M86 444q0 181 67 329.5t194 236.5t292 88q230 0 357.5 -124.5t127.5 -342.5q0 -181 -67.5 -329.5t-195 -236.5t-292.5 -88q-230 0 -356.5 123.5t-126.5 343.5zM256 444q0 -151 75.5 -240t235.5 -89q71 0 133 28.5t107.5 78t78.5 114.5t49.5 140.5t16.5 154.5 q0 152 -75 241t-236 89q-88 0 -162 -44t-122 -116.5t-74.5 -165t-26.5 -191.5zM457 1493h219l209 -266h-131z" />
<glyph unicode="&#xf3;" horiz-adv-x="1241" d="M86 444q0 181 67 329.5t194 236.5t292 88q230 0 357.5 -124.5t127.5 -342.5q0 -181 -67.5 -329.5t-195 -236.5t-292.5 -88q-230 0 -356.5 123.5t-126.5 343.5zM256 444q0 -151 75.5 -240t235.5 -89q71 0 133 28.5t107.5 78t78.5 114.5t49.5 140.5t16.5 154.5 q0 152 -75 241t-236 89q-88 0 -162 -44t-122 -116.5t-74.5 -165t-26.5 -191.5zM565 1227l285 266h246l-377 -266h-154z" />
<glyph unicode="&#xf4;" horiz-adv-x="1241" d="M86 444q0 181 67 329.5t194 236.5t292 88q230 0 357.5 -124.5t127.5 -342.5q0 -181 -67.5 -329.5t-195 -236.5t-292.5 -88q-230 0 -356.5 123.5t-126.5 343.5zM256 444q0 -151 75.5 -240t235.5 -89q71 0 133 28.5t107.5 78t78.5 114.5t49.5 140.5t16.5 154.5 q0 152 -75 241t-236 89q-88 0 -162 -44t-122 -116.5t-74.5 -165t-26.5 -191.5zM428 1227l246 266h198l156 -266h-119l-143 174l-203 -174h-135z" />
<glyph unicode="&#xf5;" horiz-adv-x="1241" d="M86 444q0 181 67 329.5t194 236.5t292 88q230 0 357.5 -124.5t127.5 -342.5q0 -181 -67.5 -329.5t-195 -236.5t-292.5 -88q-230 0 -356.5 123.5t-126.5 343.5zM256 444q0 -151 75.5 -240t235.5 -89q71 0 133 28.5t107.5 78t78.5 114.5t49.5 140.5t16.5 154.5 q0 152 -75 241t-236 89q-88 0 -162 -44t-122 -116.5t-74.5 -165t-26.5 -191.5zM418 1280q30 47 46 69.5t43 51.5t56 41t64 12q46 0 129.5 -42t122.5 -42q30 0 52.5 15t55.5 65l90 -33q-29 -47 -46 -70.5t-43.5 -52.5t-54.5 -41t-63 -12q-48 0 -131.5 43t-120.5 43 q-29 0 -52.5 -16t-57.5 -66z" />
<glyph unicode="&#xf6;" horiz-adv-x="1241" d="M86 444q0 181 67 329.5t194 236.5t292 88q230 0 357.5 -124.5t127.5 -342.5q0 -181 -67.5 -329.5t-195 -236.5t-292.5 -88q-230 0 -356.5 123.5t-126.5 343.5zM256 444q0 -151 75.5 -240t235.5 -89q71 0 133 28.5t107.5 78t78.5 114.5t49.5 140.5t16.5 154.5 q0 152 -75 241t-236 89q-88 0 -162 -44t-122 -116.5t-74.5 -165t-26.5 -191.5zM473 1247l33 195h174l-33 -195h-174zM821 1247l33 195h170l-35 -195h-168z" />
<glyph unicode="&#xf7;" d="M121 614l24 136h1018l-22 -136h-1020zM461 319q-4 52 35.5 89.5t95.5 37.5q42 0 72.5 -28t35.5 -68q4 -52 -35 -89.5t-94 -37.5q-42 0 -73.5 28t-36.5 68zM584 1016q-6 51 34 89t95 38q42 0 73.5 -28t36.5 -68q4 -51 -35 -89t-94 -38q-43 0 -75 28t-35 68z" />
<glyph unicode="&#xf8;" horiz-adv-x="1243" d="M35 0l141 150q-86 115 -86 294q0 135 39.5 254.5t110.5 208t175.5 140t227.5 51.5q205 0 330 -103l76 80h135l-142 -151q86 -119 86 -293q0 -181 -67.5 -329.5t-195 -236.5t-292.5 -88q-200 0 -329 99l-72 -76h-137zM262 444q0 -106 31 -172l575 613q-79 76 -221 76 q-89 0 -163 -44t-121.5 -116.5t-74 -165t-26.5 -191.5zM350 188q76 -73 221 -73q89 0 163 43.5t121.5 116.5t74 165t26.5 191q0 97 -30 170z" />
<glyph unicode="&#xf9;" horiz-adv-x="1230" d="M104 322l132 753h170l-132 -735q-36 -223 144 -223q98 0 221 57.5t199 118.5l139 782h170l-191 -1075h-170l25 143q-90 -62 -211 -114t-235 -52q-160 0 -224.5 94.5t-36.5 250.5zM446 1493h220l211 -266h-134z" />
<glyph unicode="&#xfa;" horiz-adv-x="1230" d="M104 322l132 753h170l-132 -735q-36 -223 144 -223q98 0 221 57.5t199 118.5l139 782h170l-191 -1075h-170l25 143q-90 -62 -211 -114t-235 -52q-160 0 -224.5 94.5t-36.5 250.5zM557 1227l285 266h245l-378 -266h-152z" />
<glyph unicode="&#xfb;" horiz-adv-x="1230" d="M104 322l132 753h170l-132 -735q-36 -223 144 -223q98 0 221 57.5t199 118.5l139 782h170l-191 -1075h-170l25 143q-90 -62 -211 -114t-235 -52q-160 0 -224.5 94.5t-36.5 250.5zM418 1227l248 266h196l158 -266h-119l-145 174l-203 -174h-135z" />
<glyph unicode="&#xfc;" horiz-adv-x="1230" d="M104 322l132 753h170l-132 -735q-36 -223 144 -223q98 0 221 57.5t199 118.5l139 782h170l-191 -1075h-170l25 143q-90 -62 -211 -114t-235 -52q-160 0 -224.5 94.5t-36.5 250.5zM463 1247l35 195h172l-33 -195h-174zM811 1247l35 195h170l-35 -195h-170z" />
<glyph unicode="&#xfd;" horiz-adv-x="1130" d="M-20 -295q168 54 241 107.5t148 183.5l-236 1079h176l172 -876l484 876h190l-614 -1075q-91 -159 -131 -212q-77 -99 -198 -156q-76 -36 -192 -68zM510 1227l285 266h247l-378 -266h-154z" />
<glyph unicode="&#xfe;" horiz-adv-x="1230" d="M-16 -418l338 1911h170l-99 -555q200 160 383 160q68 0 127 -20.5t109.5 -63.5t80 -119.5t29.5 -179.5q0 -212 -60.5 -379.5t-173 -263t-257.5 -95.5q-62 0 -120 15.5t-106.5 44t-80.5 52.5t-70 58l-100 -565h-170zM279 289q155 -170 321 -170q105 0 185.5 85t120.5 215 t40 279q0 124 -54 191t-161 67q-94 0 -178.5 -45.5t-187.5 -128.5z" />
<glyph unicode="&#xff;" horiz-adv-x="1130" d="M-20 -295q168 54 241 107.5t148 183.5l-236 1079h176l172 -876l484 876h190l-614 -1075q-91 -159 -131 -212q-77 -99 -198 -156q-76 -36 -192 -68zM416 1247l35 195h172l-33 -195h-174zM764 1247l35 195h172l-37 -195h-170z" />
<glyph unicode="&#x152;" horiz-adv-x="2258" d="M135 584q-1 110 23.5 225.5t80 232.5t136 208t203.5 148.5t270 57.5q352 0 498 -235l36 213h899l-24 -154h-725l-88 -487h600l-25 -152h-602l-86 -487h735l-24 -154h-912l25 143q-181 -166 -432 -166q-153 0 -268 45.5t-183.5 128.5t-102 191t-34.5 242zM317 584 q0 -453 402 -453q91 0 171 34t137 91.5t102 131t72 155t40.5 159t13.5 148.5q0 453 -401 453q-92 0 -172 -34t-137 -92t-102 -131t-72 -154.5t-40.5 -159t-13.5 -148.5z" />
<glyph unicode="&#x153;" horiz-adv-x="2000" d="M86 444q0 181 67 329.5t194 236.5t292 88q156 0 267 -60t167 -170q82 109 203 169.5t270 60.5q173 0 271 -79.5t98 -203.5q0 -354 -674 -354h-125v-25q0 -155 65.5 -239t190.5 -84q21 0 44.5 3t44 7t46 12.5t43 14t44.5 17.5l40.5 18t40 19.5t35.5 18t34 18t28 15.5 l65 -123q-52 -28 -89.5 -46.5t-108.5 -48t-145 -45.5t-144 -16q-125 0 -218 53.5t-143 157.5q-74 -99 -182 -155t-238 -56q-230 0 -356.5 123.5t-126.5 343.5zM256 444q0 -151 75.5 -240t235.5 -89q71 0 133 28.5t107.5 78t78.5 114.5t49.5 140.5t16.5 154.5q0 152 -75 241 t-236 89q-88 0 -162 -44t-122 -116.5t-74.5 -165t-26.5 -191.5zM1128 571h127q244 0 368 64t124 176q0 72 -58 114t-151 42q-150 0 -262 -112t-148 -284z" />
<glyph unicode="&#x178;" horiz-adv-x="1288" d="M174 1434h186l283 -727l537 727h209l-672 -869l-99 -565h-178l101 569zM543 1556l35 195h172l-35 -195h-172zM889 1556l35 195h172l-35 -195h-172z" />
<glyph unicode="&#x2c6;" horiz-adv-x="565" d="M199 1227l247 266h197l156 -266h-119l-143 174l-203 -174h-135z" />
<glyph unicode="&#x2dc;" horiz-adv-x="600" d="M211 1300q57 84 99.5 121t103.5 37q45 0 90 -25t83 -50t66 -25q25 0 50.5 19t66.5 77l86 -55q-31 -44 -49 -66.5t-44 -47t-52.5 -34.5t-59.5 -10q-45 0 -89.5 25t-82 50t-65.5 25q-25 0 -51 -18t-68 -76z" />
<glyph unicode="&#x2000;" horiz-adv-x="971" />
<glyph unicode="&#x2001;" horiz-adv-x="1942" />
<glyph unicode="&#x2002;" horiz-adv-x="971" />
<glyph unicode="&#x2003;" horiz-adv-x="1942" />
<glyph unicode="&#x2004;" horiz-adv-x="647" />
<glyph unicode="&#x2005;" horiz-adv-x="485" />
<glyph unicode="&#x2006;" horiz-adv-x="323" />
<glyph unicode="&#x2007;" horiz-adv-x="323" />
<glyph unicode="&#x2008;" horiz-adv-x="242" />
<glyph unicode="&#x2009;" horiz-adv-x="388" />
<glyph unicode="&#x200a;" horiz-adv-x="107" />
<glyph unicode="&#x2010;" horiz-adv-x="886" d="M137 510l25 147h577l-24 -147h-578z" />
<glyph unicode="&#x2011;" horiz-adv-x="886" d="M137 510l25 147h577l-24 -147h-578z" />
<glyph unicode="&#x2012;" horiz-adv-x="886" d="M137 510l25 147h577l-24 -147h-578z" />
<glyph unicode="&#x2013;" horiz-adv-x="1153" d="M137 510l25 145h844l-25 -145h-844z" />
<glyph unicode="&#x2014;" horiz-adv-x="1366" d="M137 510l25 145h1052l-22 -145h-1055z" />
<glyph unicode="&#x2018;" horiz-adv-x="487" d="M205 952l22 260l215 263l47 -66l-139 -211h90l-41 -246h-194z" />
<glyph unicode="&#x2019;" horiz-adv-x="468" d="M193 975l139 211h-90l41 248h192l-22 -263l-213 -260z" />
<glyph unicode="&#x201a;" horiz-adv-x="501" d="M-4 -211l139 211h-90l41 246h195l-23 -260l-215 -262z" />
<glyph unicode="&#x201c;" horiz-adv-x="860" d="M205 952l22 260l215 263l47 -66l-139 -211h90l-41 -246h-194zM578 952l22 260l215 263l47 -66l-137 -211h90l-43 -246h-194z" />
<glyph unicode="&#x201d;" horiz-adv-x="841" d="M193 975l139 211h-90l41 248h192l-22 -263l-213 -260zM565 975l140 211h-91l43 248h193l-23 -263l-215 -260z" />
<glyph unicode="&#x201e;" horiz-adv-x="874" d="M-4 -211l139 211h-90l41 246h195l-23 -260l-215 -262zM369 -211l139 211h-90l43 246h192l-22 -260l-215 -262z" />
<glyph unicode="&#x2022;" horiz-adv-x="888" d="M174 582q0 110 77 188t187 78q109 0 186.5 -78t77.5 -188t-77.5 -186.5t-186.5 -76.5q-110 0 -187 76.5t-77 186.5z" />
<glyph unicode="&#x2026;" horiz-adv-x="1329" d="M45 0l43 246h195l-41 -246h-197zM461 0l43 246h194l-41 -246h-196zM874 0l46 246h194l-41 -246h-199z" />
<glyph unicode="&#x202f;" horiz-adv-x="388" />
<glyph unicode="&#x2039;" horiz-adv-x="821" d="M57 516l19 111l698 454l-31 -184l-526 -340l406 -336l-27 -158z" />
<glyph unicode="&#x203a;" horiz-adv-x="819" d="M29 63l32 185l529 340l-408 336l27 157l536 -454l-16 -111z" />
<glyph unicode="&#x205f;" horiz-adv-x="485" />
<glyph unicode="&#x20ac;" horiz-adv-x="1447" d="M84 489l20 109h121q3 120 27 225h-107l17 109h119q78 245 251 384.5t386 139.5q80 0 154.5 -18.5t144.5 -56t114.5 -67t110.5 -79.5l-101 -123q-124 95 -216.5 139.5t-192.5 44.5q-146 0 -267.5 -98t-189.5 -266h588l-19 -109h-606q-27 -105 -30 -225h598l-21 -109h-575 q14 -179 93 -265.5t202 -86.5q182 0 475 182l80 -137q-157 -94 -300.5 -149.5t-287.5 -55.5q-92 0 -167.5 29t-136 89t-97.5 160t-44 234h-143z" />
<glyph unicode="&#x2122;" horiz-adv-x="1323" d="M260 1356l12 78h422l-10 -78h-166l-67 -381h-95l66 381h-162zM692 975l80 459h100l109 -289l219 289h98l-77 -459h-97l56 315l-181 -239h-61l-92 249l-58 -325h-96z" />
<glyph unicode="&#xe000;" horiz-adv-x="1075" d="M0 0v1075h1075v-1075h-1075z" />
</font>
</defs>
</svg>
